<?xml version="1.0" encoding="utf-8"?>
<!-- Generated by IcoMoon.io -->
<!DOCTYPE svg PUBLIC "-//W3C//DTD SVG 1.1//EN" "http://www.w3.org/Graphics/SVG/1.1/DTD/svg11.dtd">
<svg version="1.1" xmlns="http://www.w3.org/2000/svg" xmlns:xlink="http://www.w3.org/1999/xlink" width="32" height="32" viewBox="0 0 32 32">
<path fill="#444444" d="M12.001 17.032c-4.678 0-8.483-3.805-8.483-8.482s3.806-8.483 8.483-8.483c4.677 0 8.481 3.806 8.481 8.483s-3.804 8.482-8.481 8.482zM12.001 2.067c-3.575 0-6.483 2.908-6.483 6.483 0 3.574 2.908 6.482 6.483 6.482s6.481-2.908 6.481-6.482-2.907-6.483-6.481-6.483z"></path>
<path fill="#444444" d="M2.068 31.937h-2c0-12.961 7.816-16.987 10.664-16.987v2c-1.346-0.001-8.664 2.763-8.664 14.987z"></path>
<path fill="#444444" d="M23.688 31.937h-2c0-12.224-7.317-14.987-8.663-14.987v-2c2.847-0.001 10.663 4.026 10.663 16.987z"></path>
<path fill="#444444" d="M22.996 21.029c-3.648 0-6.616-2.967-6.616-6.614 0-0.246 0.014-0.489 0.040-0.729l1.988 0.22c-0.019 0.167-0.028 0.337-0.028 0.509 0 2.544 2.071 4.614 4.616 4.614s4.615-2.070 4.615-4.614c0-2.545-2.070-4.616-4.615-4.616-1.063 0-2.102 0.371-2.923 1.043l-1.268-1.547c1.178-0.965 2.666-1.496 4.19-1.496 3.647 0 6.615 2.968 6.615 6.616 0.001 3.647-2.966 6.614-6.614 6.614z"></path>
<path fill="#444444" d="M31.924 32h-2c0-8.97-5.28-10.998-6.252-10.998v-2c2.203 0 8.252 3.080 8.252 12.998z"></path>
</svg>
