<?xml version="1.0" encoding="utf-8"?>
<!-- Generated by IcoMoon.io -->
<!DOCTYPE svg PUBLIC "-//W3C//DTD SVG 1.1//EN" "http://www.w3.org/Graphics/SVG/1.1/DTD/svg11.dtd">
<svg version="1.1" xmlns="http://www.w3.org/2000/svg" xmlns:xlink="http://www.w3.org/1999/xlink" width="32" height="32" viewBox="0 0 32 32">
<path fill="#444444" d="M15.186 28.355v-2.461c-1.23-0.156-2.23-0.432-3.001-0.828s-1.436-1.036-1.996-1.92c-0.561-0.885-0.887-1.965-0.978-3.24l2.475-0.465c0.191 1.321 0.528 2.292 1.012 2.912 0.692 0.875 1.522 1.362 2.488 1.463v-7.835c-1.012-0.191-2.046-0.583-3.104-1.176-0.784-0.438-1.388-1.043-1.812-1.818s-0.636-1.654-0.636-2.639c0-1.75 0.62-3.167 1.859-4.252 0.829-0.729 2.060-1.176 3.691-1.34v-1.175h1.449v1.176c1.431 0.137 2.566 0.556 3.404 1.258 1.076 0.894 1.723 2.119 1.941 3.678l-2.543 0.383c-0.145-0.966-0.449-1.707-0.908-2.222-0.461-0.515-1.092-0.854-1.894-1.019v7.096c1.24 0.31 2.060 0.552 2.46 0.725 0.766 0.337 1.391 0.748 1.873 1.23 0.484 0.483 0.855 1.058 1.115 1.723 0.26 0.666 0.389 1.386 0.389 2.161 0 1.704-0.541 3.126-1.627 4.266-1.084 1.139-2.488 1.75-4.21 1.832v2.488h-1.447zM15.186 6.807c-0.957 0.146-1.711 0.529-2.263 1.148s-0.827 1.354-0.827 2.201c0 0.839 0.234 1.541 0.704 2.105s1.265 1.017 2.386 1.354v-6.808zM16.635 23.816c0.957-0.119 1.748-0.533 2.373-1.244 0.623-0.711 0.936-1.591 0.936-2.639 0-0.894-0.221-1.611-0.662-2.154-0.443-0.542-1.324-1.028-2.646-1.457v7.494z"></path>
<path fill="#444444" d="M30.8 32h-29.6c-0.661 0-1.2-0.518-1.2-1.154v-14.846h2v14h28v-14h2v14.846c0 0.636-0.538 1.154-1.2 1.154z"></path>
</svg>
