<?xml version="1.0" encoding="utf-8"?>
<!-- Generator: Adobe Illustrator 19.0.0, SVG Export Plug-In . SVG Version: 6.00 Build 0)  -->
<svg version="1.1" id="图层_1" xmlns="http://www.w3.org/2000/svg" xmlns:xlink="http://www.w3.org/1999/xlink" x="0px" y="0px"
	 viewBox="0 0 32 32" style="enable-background:new 0 0 32 32;" xml:space="preserve">
<style type="text/css">
	.st0{fill:#444444;}
</style>
<path class="st0" d="M26.1,19.2H5.9c-0.8,0-1.4-0.6-1.4-1.4l0,0c0-0.8,0.6-1.4,1.4-1.4h20.2c0.8,0,1.4,0.6,1.4,1.4l0,0
	C27.5,18.6,26.9,19.2,26.1,19.2z"/>
<path class="st0" d="M29.9,11.9H2.1c-0.8,0-1.4-0.6-1.4-1.4l0,0c0-0.8,0.6-1.4,1.4-1.4h27.8c0.8,0,1.4,0.6,1.4,1.4l0,0
	C31.3,11.3,30.7,11.9,29.9,11.9z"/>
<path class="st0" d="M26.1,25.3H5.9c-0.8,0-1.4-0.6-1.4-1.4l0,0c0-0.8,0.6-1.4,1.4-1.4h20.2c0.8,0,1.4,0.6,1.4,1.4l0,0
	C27.5,24.7,26.9,25.3,26.1,25.3z"/>
<g>
	<rect x="12.8" y="2" class="st0" width="6.2" height="2"/>
	<path class="st0" d="M27.7,2h-4v2h2.6c2,0,3.7,1.8,3.7,4.1v17.8c0,2.2-1.6,4.1-3.7,4.1H5.7c-2,0-3.7-1.8-3.7-4.1V8.1
		C2,5.8,3.6,4,5.7,4h2.4V2H4.2C1.9,2,0,4.1,0,6.7v20.7C0,29.9,1.9,32,4.2,32h23.6c2.3,0,4.2-2.1,4.2-4.7V6.7C31.9,4.1,30,2,27.7,2z"
		/>
</g>
<path class="st0" d="M10.5,6.2h-0.1c-0.6,0-1.1-0.5-1.1-1.1v-4C9.3,0.5,9.8,0,10.4,0h0.1c0.6,0,1.1,0.5,1.1,1.1v4
	C11.7,5.7,11.2,6.2,10.5,6.2z"/>
<path class="st0" d="M21.5,6.2h-0.1c-0.6,0-1.1-0.5-1.1-1.1v-4c0-0.6,0.5-1.1,1.1-1.1h0.1c0.6,0,1.1,0.5,1.1,1.1v4
	C22.6,5.7,22.1,6.2,21.5,6.2z"/>
</svg>
