<?xml version="1.0" encoding="iso-8859-1"?>
<!-- Generator: Adobe Illustrator 16.0.4, SVG Export Plug-In . SVG Version: 6.00 Build 0)  -->
<!DOCTYPE svg PUBLIC "-//W3C//DTD SVG 1.1//EN" "http://www.w3.org/Graphics/SVG/1.1/DTD/svg11.dtd">
<svg version="1.1" id="&#x56FE;&#x5C42;_1" xmlns="http://www.w3.org/2000/svg" xmlns:xlink="http://www.w3.org/1999/xlink" x="0px"
	 y="0px" width="14px" height="14px" viewBox="0 0 14 14" style="enable-background:new 0 0 14 14;" xml:space="preserve">
<g>
	<path d="M3.693,5.098c0,0.326,0.242,0.59,0.541,0.59c0.003,0,0.006,0,0.01,0C4.355,7.243,5.545,8.799,7,8.799
		c1.454,0,2.645-1.556,2.757-3.112c0.003,0,0.006,0,0.009,0c0.299,0,0.542-0.264,0.542-0.59c0-0.241-0.132-0.447-0.321-0.539
		c0.109-0.35,0.169-0.723,0.169-1.113C10.156,1.543,8.744,0,7,0C5.256,0,3.844,1.543,3.844,3.445c0,0.39,0.06,0.764,0.169,1.113
		C3.824,4.65,3.693,4.856,3.693,5.098z"/>
	<path d="M13.911,12.399c-1.289-1.288-2.861-2.197-4.555-2.632C9.313,9.744,9.266,9.73,9.216,9.73H9.062
		c-0.048,0-0.096,0.013-0.139,0.036C8.412,10.049,7.711,10.211,7,10.211c-0.711,0-1.412-0.162-1.923-0.444
		C5.034,9.743,4.987,9.73,4.938,9.73H4.826c-0.023,0-0.045,0.004-0.067,0.008c-1.736,0.423-3.351,1.343-4.669,2.661
		C0.032,12.455,0,12.533,0,12.616v1.081C0,13.863,0.132,14,0.294,14h13.413C13.868,14,14,13.863,14,13.697v-1.081
		C14,12.533,13.969,12.455,13.911,12.399z"/>
</g>
</svg>
