<?xml version="1.0" encoding="utf-8"?>
<!-- Generated by IcoMoon.io -->
<!DOCTYPE svg PUBLIC "-//W3C//DTD SVG 1.1//EN" "http://www.w3.org/Graphics/SVG/1.1/DTD/svg11.dtd">
<svg version="1.1" xmlns="http://www.w3.org/2000/svg" xmlns:xlink="http://www.w3.org/1999/xlink" width="32" height="32" viewBox="0 0 32 32">
<path fill="#444444" d="M26.25 28h-24.5c-0.966 0-1.75-0.75-1.75-1.67v-15.91c0-0.92 0.784-1.67 1.75-1.67h24.5c0.964 0 1.75 0.75 1.75 1.67v15.91c0 0.92-0.786 1.67-1.75 1.67zM26.25 10.42l-24.5 0.080v15.83l24.5-0.078c0.022 0 0.034-0.008 0.034-0.008l-0.034-15.824z"></path>
<path fill="#444444" d="M1.75 14h24.5v5.25h-24.5v-5.25z"></path>
<path fill="#444444" d="M5.376 21.876h7v1.75h-7v-1.75z"></path>
<path fill="#444444" d="M15.75 21.876h7v1.75h-7v-1.75z"></path>
<path fill="#444444" d="M30.646 23.402h-2.958v-2h2.312v-14.714h-23.056v2.648h-2v-3.286c0-0.752 0.608-1.364 1.354-1.364h24.35c0.744 0.002 1.352 0.612 1.352 1.364v15.988c0 0.754-0.608 1.364-1.354 1.364z"></path>
</svg>
