<?xml version="1.0" encoding="utf-8"?>
<!-- Generated by IcoMoon.io -->
<!DOCTYPE svg PUBLIC "-//W3C//DTD SVG 1.1//EN" "http://www.w3.org/Graphics/SVG/1.1/DTD/svg11.dtd">
<svg version="1.1" xmlns="http://www.w3.org/2000/svg" xmlns:xlink="http://www.w3.org/1999/xlink" width="32" height="32" viewBox="0 0 32 32">
<path fill="#444444" d="M32 5.001c0-3.436-8.294-5-16-5s-16 1.564-16 5c0 0.090 0.029 0.174 0.040 0.262h-0.040v21.569h0.002c0.020 3.538 8.302 5.149 15.998 5.149s15.978-1.611 15.998-5.149h0.002v-21.569h-0.040c0.012-0.088 0.040-0.172 0.040-0.262zM16 2.001c9.237 0 14 2.103 14 3s-4.763 3-14 3c-9.237 0-14-2.103-14-3s4.763-3 14-3zM16 29.981c-9.237 0-14-2.217-14-3.162v-19.233c2.921 1.643 8.599 2.415 14 2.415s11.079-0.772 14-2.415v19.233c0 0.946-4.763 3.162-14 3.162z"></path>
</svg>
