<?xml version="1.0" encoding="utf-8"?>
<!-- Generated by IcoMoon.io -->
<!DOCTYPE svg PUBLIC "-//W3C//DTD SVG 1.1//EN" "http://www.w3.org/Graphics/SVG/1.1/DTD/svg11.dtd">
<svg version="1.1" xmlns="http://www.w3.org/2000/svg" xmlns:xlink="http://www.w3.org/1999/xlink" width="32" height="32" viewBox="0 0 32 32">
<path fill="#444444" d="M20.835 0h-17.835v32h26v-23.733l-8.165-8.267zM5 30v-28h14.958l7.042 7.042v20.958h-22z"></path>
<path fill="#444444" d="M20.885 12.528l1.479-1.478-1.414-1.414-1.479 1.478c-0.722-0.514-1.562-0.871-2.471-1.024v-2.090h-2v2.090c-0.916 0.155-1.761 0.516-2.487 1.036l-1.491-1.491-1.414 1.414 1.495 1.495c-0.508 0.719-0.86 1.553-1.013 2.456h-2.090v2h2.090c0.153 0.91 0.51 1.749 1.024 2.471l-1.479 1.479 1.414 1.414 1.479-1.479c0.722 0.515 1.562 0.871 2.472 1.025v2.090h2v-2.090c0.902-0.152 1.737-0.505 2.455-1.014l1.467 1.467 1.414-1.414-1.463-1.463c0.521-0.726 0.882-1.57 1.037-2.487h2.090v-2h-2.090c-0.154-0.909-0.511-1.749-1.025-2.471zM12 16c0-2.206 1.794-4 4-4s4 1.794 4 4-1.794 4-4 4-4-1.795-4-4z"></path>
</svg>
