<?xml version="1.0" encoding="utf-8"?>
<!-- Generated by IcoMoon.io -->
<!DOCTYPE svg PUBLIC "-//W3C//DTD SVG 1.1//EN" "http://www.w3.org/Graphics/SVG/1.1/DTD/svg11.dtd">
<svg version="1.1" xmlns="http://www.w3.org/2000/svg" xmlns:xlink="http://www.w3.org/1999/xlink" width="32" height="32" viewBox="0 0 32 32">
<path fill="#444444" d="M20.835 0h-17.835v32h26v-23.733l-8.165-8.267zM27 30h-22v-28h14.852l7.148 7.271v20.729z"></path>
<path fill="#444444" d="M7.5 10.501c0 0.046 0.017 0.086 0.021 0.131h-0.021v10.792h0.001c0.014 2.989 7.63 3.076 8.499 3.076s8.484-0.087 8.499-3.076h0.001v-10.792h-0.021c0.003-0.045 0.021-0.085 0.021-0.131 0-2.856-7.081-3.001-8.5-3.001s-8.5 0.145-8.5 3.001zM22.5 15.826c-0.395 0.434-2.657 1.221-6.5 1.221s-6.106-0.787-6.5-1.221v-3.242c2.207 0.85 5.568 0.918 6.5 0.918 0.931 0 4.293-0.067 6.5-0.918v3.242zM9.5 21.278v-3.195c2.325 0.92 5.918 0.964 6.5 0.964s4.176-0.044 6.5-0.964v3.196c-0.395 0.434-2.657 1.221-6.5 1.221s-6.107-0.788-6.5-1.222zM16 11.502c-3.34 0-5.513-0.578-6.28-1.001 0.767-0.423 2.94-1.001 6.28-1.001s5.513 0.578 6.28 1.001c-0.767 0.424-2.939 1.001-6.28 1.001z"></path>
</svg>
