<?xml version="1.0" standalone="no"?><!DOCTYPE svg PUBLIC "-//W3C//DTD SVG 1.1//EN" "http://www.w3.org/Graphics/SVG/1.1/DTD/svg11.dtd"><svg class="icon" width="32px" height="32.00px" viewBox="0 0 1024 1024" version="1.1" xmlns="http://www.w3.org/2000/svg"><path d="M644.599506 499.914754l115.468848 0 0 115.469871L644.599506 615.384625 644.599506 499.914754 644.599506 499.914754zM454.303438 499.914754l115.391077 0 0 115.469871L454.303438 615.384625 454.303438 499.914754 454.303438 499.914754zM263.857968 499.914754l115.388007 0 0 115.469871-115.388007 0L263.857968 499.914754 263.857968 499.914754zM454.303438 669.785629l115.391077 0L569.694515 785.175683 454.303438 785.175683 454.303438 669.785629 454.303438 669.785629zM263.857968 669.785629l115.388007 0L379.245975 785.175683l-115.388007 0L263.857968 669.785629 263.857968 669.785629zM852.483136 183.302793l-36.893258 0-9.055237 0-38.685068 0L767.849574 87.141686 652.535245 87.141686l0 192.395892c-15.192004-0.525979-27.393907-12.800537-27.393907-28.066219l0-68.094888L427.659615 183.376471 427.659615 87.141686l-115.388007 0 0 192.395892c-15.112186-0.525979-27.313066-12.800537-27.313066-28.066219l0-68.094888-28.956495 0-17.888416 0-66.677609 0c-39.884382 0.821715-71.912843 32.924877-72.883961 72.810283l0 45.421492 0 53.130058 0.971118 516.720511c4.492314 36.294624 34.574447 64.503083 71.912843 65.398476l681.271218 0c37.418214-0.895393 67.426669-29.103852 71.912843-65.398476l0.828878-7.483438L925.448962 354.739327l0-28.808116 0-69.743434C924.471704 216.302371 892.443243 184.199209 852.483136 183.302793L852.483136 183.302793zM847.470983 855.445096 176.454316 855.445096 176.454316 429.650457l671.016667 0L847.470983 855.445096 847.470983 855.445096zM847.470983 855.445096" fill="#444444" /></svg>