<?xml version="1.0" encoding="utf-8"?>
<!-- Generated by IcoMoon.io -->
<!DOCTYPE svg PUBLIC "-//W3C//DTD SVG 1.1//EN" "http://www.w3.org/Graphics/SVG/1.1/DTD/svg11.dtd">
<svg version="1.1" xmlns="http://www.w3.org/2000/svg" xmlns:xlink="http://www.w3.org/1999/xlink" width="32" height="32" viewBox="0 0 32 32">
<path fill="#444444" d="M16 10c-7.706 0-16-1.564-16-5s8.294-5 16-5 16 1.564 16 5-8.294 5-16 5zM16 2c-9.237 0-14 2.103-14 3s4.763 3 14 3c9.237 0 14-2.103 14-3s-4.763-3-14-3z"></path>
<path fill="#444444" d="M16 32c-7.692 0-15.972-1.62-15.972-5.177h2c0 0.95 4.754 3.177 13.972 3.177s13.972-2.227 13.972-3.177h2c0 3.557-8.28 5.177-15.972 5.177z"></path>
<path fill="#444444" d="M30 5.267h2v21.557h-2v-21.557z"></path>
<path fill="#444444" d="M0 5.267h2v21.557h-2v-21.557z"></path>
<path fill="#444444" d="M16 26c-3.309 0-6-2.691-6-6s2.691-6 6-6 6 2.691 6 6-2.691 6-6 6zM16 16c-2.206 0-4 1.794-4 4s1.794 4 4 4c2.206 0 4-1.794 4-4s-1.794-4-4-4z"></path>
<path fill="#444444" d="M15 12h2v3h-2v-3z"></path>
<path fill="#444444" d="M15 25h2v3h-2v-3z"></path>
<path fill="#444444" d="M20.95 13.636l1.414 1.414-2.121 2.121-1.414-1.414 2.121-2.121z"></path>
<path fill="#444444" d="M11.756 22.829l1.414 1.414-2.121 2.121-1.414-1.414 2.121-2.121z"></path>
<path fill="#444444" d="M11.023 13.635l2.121 2.121-1.414 1.414-2.121-2.121 1.414-1.414z"></path>
<path fill="#444444" d="M20.215 22.828l2.121 2.121-1.414 1.414-2.121-2.121 1.414-1.414z"></path>
<path fill="#444444" d="M8 19h3v2h-3v-2z"></path>
<path fill="#444444" d="M21 19h3v2h-3v-2z"></path>
</svg>
