<?xml version="1.0" encoding="utf-8"?>
<!-- Generated by IcoMoon.io -->
<!DOCTYPE svg PUBLIC "-//W3C//DTD SVG 1.1//EN" "http://www.w3.org/Graphics/SVG/1.1/DTD/svg11.dtd">
<svg version="1.1" xmlns="http://www.w3.org/2000/svg" xmlns:xlink="http://www.w3.org/1999/xlink" width="32" height="32" viewBox="0 0 32 32">
<path fill="#444444" d="M16 10.001c-7.706 0-16-1.564-16-5s8.294-5 16-5 16 1.564 16 5-8.294 5-16 5zM16 2.001c-9.237 0-14 2.103-14 3s4.763 3 14 3c9.237 0 14-2.103 14-3s-4.763-3-14-3z"></path>
<path fill="#444444" d="M16 31.981c-7.706 0-16-1.615-16-5.162h2c0 0.945 4.763 3.162 14 3.162s14-2.217 14-3.162h2c0 3.547-8.294 5.162-16 5.162z"></path>
<path fill="#444444" d="M16 21.082c-7.706 0-16-1.616-16-5.164h2c0 0.946 4.763 3.164 14 3.164s14-2.217 14-3.164h2c0 3.548-8.294 5.164-16 5.164z"></path>
<path fill="#444444" d="M30 5.263h2v21.569h-2v-21.569z"></path>
<path fill="#444444" d="M0 5.263h2v21.569h-2v-21.569z"></path>
</svg>
