<?xml version="1.0" encoding="utf-8"?>
<!-- Generator: Adobe Illustrator 19.0.0, SVG Export Plug-In . SVG Version: 6.00 Build 0)  -->
<svg version="1.1" id="图层_1" xmlns="http://www.w3.org/2000/svg" xmlns:xlink="http://www.w3.org/1999/xlink" x="0px" y="0px"
	 viewBox="0 0 32 32" style="enable-background:new 0 0 32 32;" xml:space="preserve">
<style type="text/css">
	.st0{fill:#444444;}
</style>
<path class="st0" d="M4.2,0C1.9,0,0,2.1,0,4.7L4.2,0z M0,4.7v22.7C0,29.9,1.9,32,4.2,32h23.6c2.3,0,4.2-2.1,4.2-4.7V4.7
	C31.9,2.1,30,0,27.7,0H4.2L0,4.7z M5.7,2h20.6c2,0,3.7,1.8,3.7,4.1v19.8c0,2.2-1.6,4.1-3.7,4.1H5.7c-2,0-3.7-1.8-3.7-4.1V6.1
	C2,3.8,3.6,2,5.7,2z"/>
<path class="st0" d="M8.7,21.5h6v6c0,0.7,0.6,1.3,1.3,1.3c0.7,0,1.3-0.6,1.3-1.3v-6h6c0.7,0,1.3-0.6,1.3-1.3c0-0.7-0.6-1.3-1.3-1.3
	h-6v-6c0-0.7-0.6-1.3-1.3-1.3s-1.3,0.6-1.3,1.3v6h-6c-0.7,0-1.3,0.6-1.3,1.3C7.4,20.9,8,21.5,8.7,21.5L8.7,21.5z"/>
<path class="st0" d="M1.3,9.9v-4c0-2.5,2.1-4.6,4.6-4.6H26c2.5,0,4.6,2.1,4.6,4.6v4"/>
</svg>
