<?xml version="1.0" encoding="utf-8"?>
<!-- Generated by IcoMoon.io -->
<!DOCTYPE svg PUBLIC "-//W3C//DTD SVG 1.1//EN" "http://www.w3.org/Graphics/SVG/1.1/DTD/svg11.dtd">
<svg version="1.1" xmlns="http://www.w3.org/2000/svg" xmlns:xlink="http://www.w3.org/1999/xlink" width="32" height="32" viewBox="0 0 32 32">
<path fill="#444444" d="M16 0.533c-8.528 0-15.467 6.939-15.467 15.467s6.939 15.467 15.467 15.467 15.467-6.939 15.467-15.467-6.939-15.467-15.467-15.467zM29.333 16c0 3.293-1.206 6.305-3.191 8.634l-18.775-18.775c2.329-1.985 5.341-3.191 8.634-3.191 7.353 0 13.333 5.981 13.333 13.333zM2.667 16c0-3.293 1.206-6.305 3.191-8.634l18.775 18.775c-2.329 1.985-5.341 3.191-8.634 3.191-7.353 0-13.333-5.981-13.333-13.333z"></path>
</svg>
