<?xml version="1.0" encoding="utf-8"?>
<!-- Generated by IcoMoon.io -->
<!DOCTYPE svg PUBLIC "-//W3C//DTD SVG 1.1//EN" "http://www.w3.org/Graphics/SVG/1.1/DTD/svg11.dtd">
<svg version="1.1" xmlns="http://www.w3.org/2000/svg" xmlns:xlink="http://www.w3.org/1999/xlink" width="32" height="32" viewBox="0 0 32 32">
<path fill="#444444" d="M26.862 6.51l-3.216-3.326c-0.18-0.186-0.51-0.192-0.694-0.008l-13.054 12.816-3.844 7.338c-0.098 0.19-0.060 0.422 0.094 0.57 0.090 0.088 0.21 0.138 0.34 0.138 0.082 0 0.164-0.024 0.238-0.062l7.22-4 0.088-0.066 12.82-12.72c0.19-0.188 0.194-0.484 0.008-0.68zM13.386 19.178l-3.216 1.782c-0.738-0.248-1.024-0.84-1.132-1.246l1.624-3.114-0.006 0.014 2.658 2.634 0.072-0.070zM0 27h32v2h-32v-2z"></path>
</svg>
