<?xml version="1.0" encoding="utf-8"?>
<!-- Generated by IcoMoon.io -->
<!DOCTYPE svg PUBLIC "-//W3C//DTD SVG 1.1//EN" "http://www.w3.org/Graphics/SVG/1.1/DTD/svg11.dtd">
<svg version="1.1" xmlns="http://www.w3.org/2000/svg" xmlns:xlink="http://www.w3.org/1999/xlink" width="32" height="32" viewBox="0 0 32 32">
<path fill="#444444" d="M20.666 27.844h-1.998c0-4.438 1.474-5.986 4.792-8.912l1.306 1.252c-3.22 2.836-4.1 4.482-4.1 7.66z"></path>
<path fill="#444444" d="M13.332 27.844h-1.996c0-3.178-0.878-4.824-4.098-7.66l1.36-1.542c3.318 2.924 4.734 4.764 4.734 9.202z"></path>
<path fill="#444444" d="M8.556 21.41c-2.896-2.292-4.556-5.724-4.556-9.412 0-6.616 5.382-11.998 12-11.998s12 5.382 12 11.998c0 3.67-1.648 7.088-4.522 9.378l-1.144-1.436c2.234-1.782 3.666-5.086 3.666-7.94 0-5.5-4.458-10-9.958-10-5.458 0-10.042 4.584-10.042 10 0 2.87 1.592 5.996 3.846 7.784l-1.29 1.626z"></path>
<path fill="#444444" d="M11.332 12h-2c0-3.676 2.992-6.666 6.668-6.666l0.042 2c-2.71 0-4.71 1.958-4.71 4.666z"></path>
<path fill="#444444" d="M19.066 31.998h-6.132c-0.928 0-1.602-0.8-1.602-1.904v-2.54h2v2.778l5.336-0.040v-2.792h1.998v2.594c0 1.104-0.672 1.904-1.6 1.904z"></path>
<path fill="#444444" d="M12.968 26.844h6.032v2h-6.032v-2z"></path>
<path fill="#444444" d="M12.312 23.206h7.458v2h-7.458v-2z"></path>
</svg>
