<?xml version="1.0" encoding="iso-8859-1"?>
<!-- Generator: Adobe Illustrator 19.0.0, SVG Export Plug-In . SVG Version: 6.00 Build 0)  -->
<svg version="1.1" id="&#x56FE;&#x5C42;_1" xmlns="http://www.w3.org/2000/svg" xmlns:xlink="http://www.w3.org/1999/xlink" x="0px"
	 y="0px" viewBox="0 0 32 32" style="enable-background:new 0 0 32 32;" xml:space="preserve">
<path id="XMLID_4_" d="M16.044,9.137c8.372,0,14.044,4.809,14.044,6.406s-5.671,6.406-14.044,6.406S2,17.14,2,15.543
	S7.671,9.137,16.044,9.137 M16.044,7.137C7.183,7.137,0,12.295,0,15.543c0,3.342,7.183,8.406,16.044,8.406
	s16.044-5.064,16.044-8.406C32.087,12.295,24.904,7.137,16.044,7.137L16.044,7.137z"/>
<path id="XMLID_2_" d="M16.044,12.916c1.449,0,2.628,1.179,2.628,2.628c0,1.449-1.179,2.627-2.628,2.627
	c-1.449,0-2.627-1.179-2.627-2.627C13.416,14.095,14.595,12.916,16.044,12.916 M16.044,10.916c-2.551,0-4.627,2.076-4.627,4.628
	c0,2.551,2.076,4.627,4.627,4.627c2.552,0,4.628-2.076,4.628-4.627C20.672,12.992,18.596,10.916,16.044,10.916L16.044,10.916z"/>
</svg>
