<?xml version="1.0" encoding="utf-8"?>
<!-- Generated by IcoMoon.io -->
<!DOCTYPE svg PUBLIC "-//W3C//DTD SVG 1.1//EN" "http://www.w3.org/Graphics/SVG/1.1/DTD/svg11.dtd">
<svg version="1.1" xmlns="http://www.w3.org/2000/svg" xmlns:xlink="http://www.w3.org/1999/xlink" width="32" height="32" viewBox="0 0 32 32">
<path fill="#444444" d="M21.333 25.6h10.667v2.133h-10.667v-2.133z"></path>
<path fill="#444444" d="M31.756 1.12c-0.162-0.417-0.645-1.117-2.039-1.117h-27.433c-1.396 0-1.878 0.7-2.042 1.117s-0.287 1.263 0.73 2.233l10.795 10.514-0.017 15.401c0 1.742 0.881 2.362 1.308 2.547 0.179 0.077 0.483 0.176 0.869 0.176 0.533 0 1.223-0.188 1.961-0.878l3.037-2.921c1.178-1.102 1.438-2.477 1.438-4.089v-10.252l10.666-10.497c1.017-0.973 0.894-1.818 0.729-2.235zM13.867 13.246v0l-11.455-11.126 27.014 0.014-11.261 10.995 0.012 12.161c0 0.726-1.258 1.749-1.827 2.327l-2.483 2.149z"></path>
</svg>
