<?xml version="1.0" encoding="utf-8"?>
<!-- Generator: Adobe Illustrator 16.0.0, SVG Export Plug-In . SVG Version: 6.00 Build 0)  -->
<!DOCTYPE svg PUBLIC "-//W3C//DTD SVG 1.1//EN" "http://www.w3.org/Graphics/SVG/1.1/DTD/svg11.dtd">
<svg version="1.1" id="图层_1" xmlns="http://www.w3.org/2000/svg" xmlns:xlink="http://www.w3.org/1999/xlink" x="0px" y="0px"
	 width="32px" height="32px" viewBox="0 0 32 32" enable-background="new 0 0 32 32" xml:space="preserve">
<g>
	<path fill="#444444" d="M18.875,32h-5.75v-4.104c-1.245-0.299-2.418-0.785-3.506-1.453l-2.902,2.904l-4.064-4.066l2.901-2.903
		C4.886,21.29,4.4,20.117,4.102,18.875H0v-5.75h4.103c0.296-1.23,0.776-2.394,1.432-3.473L2.602,6.716l4.067-4.065L9.59,5.575
		c1.096-0.677,2.279-1.17,3.536-1.472V0h5.75v4.102c1.242,0.298,2.416,0.785,3.504,1.452l2.902-2.901l4.067,4.066l-2.906,2.899
		c0.668,1.09,1.156,2.263,1.455,3.504H32v5.75h-4.104c-0.301,1.253-0.795,2.437-1.476,3.536l2.871,2.869l-4.065,4.065l-2.881-2.882
		c-1.072,0.648-2.25,1.139-3.473,1.434L18.875,32L18.875,32z M15.125,30h1.75v-3.764l0.833-0.141
		c1.503-0.256,2.953-0.854,4.192-1.73l0.688-0.487l2.639,2.64l1.237-1.238l-2.636-2.635l0.494-0.688
		c0.912-1.275,1.511-2.707,1.771-4.249l0.144-0.833H30v-1.75h-3.764l-0.141-0.833c-0.262-1.533-0.852-2.953-1.754-4.222l-0.49-0.69
		l2.666-2.66l-1.236-1.237l-2.665,2.663l-0.688-0.491c-1.266-0.902-2.685-1.49-4.219-1.75l-0.834-0.141V2h-1.75v3.762l-0.833,0.142
		c-1.549,0.263-2.979,0.859-4.249,1.77l-0.69,0.495L6.667,5.48L5.43,6.717l2.689,2.69l-0.485,0.688
		c-0.888,1.26-1.47,2.672-1.73,4.197l-0.142,0.832H2v1.75h3.763l0.141,0.834c0.259,1.533,0.847,2.953,1.749,4.219l0.491,0.688
		L5.48,25.281l1.237,1.236l2.664-2.666l0.69,0.491c1.264,0.901,2.684,1.491,4.222,1.753l0.833,0.141L15.125,30L15.125,30z"/>
</g>
<g>
	<path fill="#444444" d="M16,24.092c-4.462,0-8.092-3.63-8.092-8.092c0-4.462,3.63-8.092,8.092-8.092s8.092,3.63,8.092,8.092
		C24.092,20.462,20.462,24.092,16,24.092z M16,9.908c-3.359,0-6.092,2.733-6.092,6.092s2.733,6.092,6.092,6.092
		s6.092-2.733,6.092-6.092S19.359,9.908,16,9.908z"/>
</g>
</svg>
