<?xml version="1.0" encoding="utf-8"?>
<!-- Generator: Adobe Illustrator 16.0.0, SVG Export Plug-In . SVG Version: 6.00 Build 0)  -->
<!DOCTYPE svg PUBLIC "-//W3C//DTD SVG 1.1//EN" "http://www.w3.org/Graphics/SVG/1.1/DTD/svg11.dtd">
<svg version="1.1" id="图层_1" xmlns="http://www.w3.org/2000/svg" xmlns:xlink="http://www.w3.org/1999/xlink" x="0px" y="0px"
	 width="64px" height="64px" viewBox="0 0 64 64" enable-background="new 0 0 64 64" xml:space="preserve">
<g>
	<g>
		<rect x="15" y="52" fill="#5E8190" width="34" height="4"/>
	</g>
</g>
<g>
	<g>
		<rect x="22" y="44" fill="#5E8190" width="4" height="8"/>
	</g>
</g>
<g>
	<g>
		<rect x="38" y="44" fill="#5E8190" width="4" height="8"/>
	</g>
</g>
<g>
	<g>
	</g>
</g>
<g>
	<g>
	</g>
</g>
<g>
	<g>
	</g>
</g>
<g>
	<g>
		<g>
			<path fill="#5E8190" d="M59.782,44H4.217C1.892,44,0,42.163,0,39.904V4.096C0,1.838,1.892,0,4.217,0h55.565
				C62.107,0,64,1.838,64,4.096v35.808C64,42.163,62.107,44,59.782,44z M4.217,3.893c-0.115,0-0.209,0.092-0.209,0.203v35.808
				c0,0.112,0.094,0.203,0.209,0.203h55.565c0.115,0,0.21-0.091,0.21-0.203V4.096c0-0.111-0.095-0.203-0.21-0.203H4.217z"/>
		</g>
	</g>
</g>
<g>
	<path fill="none" stroke="#5A7B89" stroke-width="4" stroke-miterlimit="10" d="M17.102,33.041"/>
</g>
<g>
	<path fill="none" stroke="#5A7B89" stroke-width="4" stroke-miterlimit="10" d="M16.977,10.997"/>
</g>
<g>
	<path fill="#5A7B89" d="M32,33.77c-6.586,0-11.945-5.358-11.945-11.945S25.414,9.88,32,9.88c6.586,0,11.944,5.358,11.944,11.945
		S38.586,33.77,32,33.77z M32,13.88c-4.381,0-7.945,3.564-7.945,7.945S27.619,29.77,32,29.77s7.944-3.564,7.944-7.945
		S36.381,13.88,32,13.88z"/>
</g>
<g>
	<rect x="29.999" y="5.914" fill="#5A7B89" width="4" height="5.967"/>
</g>
<g>
	<rect x="29.999" y="31.77" fill="#5A7B89" width="4" height="5.966"/>
</g>
<g>
	
		<rect x="39.141" y="9.702" transform="matrix(0.7075 0.7067 -0.7067 0.7075 20.9998 -25.3654)" fill="#5A7B89" width="4" height="5.967"/>
</g>
<g>
	
		<rect x="20.858" y="27.986" transform="matrix(0.7071 0.7071 -0.7071 0.7071 28.5932 -7.092)" fill="#5A7B89" width="4" height="5.966"/>
</g>
<g>
	
		<rect x="19.82" y="10.683" transform="matrix(0.7069 0.7073 -0.7073 0.7069 15.6528 -12.4111)" fill="#5A7B89" width="5.967" height="4"/>
</g>
<g>
	
		<rect x="38.105" y="28.966" transform="matrix(0.7073 0.7069 -0.7069 0.7073 33.9185 -19.9807)" fill="#5A7B89" width="5.962" height="4"/>
</g>
<g>
	<rect x="16.088" y="19.825" fill="#5A7B89" width="5.967" height="4"/>
</g>
<g>
	<rect x="41.944" y="19.825" fill="#5A7B89" width="5.968" height="4"/>
</g>
</svg>
