<?xml version="1.0" encoding="utf-8"?>
<!-- Generated by IcoMoon.io -->
<!DOCTYPE svg PUBLIC "-//W3C//DTD SVG 1.1//EN" "http://www.w3.org/Graphics/SVG/1.1/DTD/svg11.dtd">
<svg version="1.1" xmlns="http://www.w3.org/2000/svg" xmlns:xlink="http://www.w3.org/1999/xlink" width="32" height="32" viewBox="0 0 32 32">
<path fill="#444444" d="M10 8h2v13h-2v-13zM29.985 13.75c0-7.835-5.936-13.743-13.808-13.743-7.809 0-14.163 6.054-14.163 13.496 0 3.679 1.168 6.828 3.206 8.767l-0.011 0.012 0.346 0.308c0.022 0.020 0.041 0.042 0.063 0.061l0.002-0.002 1.84 1.637 9.035 7.749 0.199-0.231 7.812-7.164 2.475-2.404-0.015-0.015c1.893-1.886 3.019-4.987 3.019-8.471zM23.132 23.185l-6.709 6.152-7.646-6.558-1.964-1.748c-1.751-1.508-2.797-4.308-2.797-7.528 0-6.339 5.457-11.496 12.163-11.496 6.732 0 11.808 5.048 11.808 11.743 0 2.444-0.721 5.664-2.742 7.364l0.009 0.011-2.122 2.060zM20 7.944h-6v13.056h2v-5.056h4c2.206 0 4-1.794 4-4s-1.794-4-4-4zM20 13.944h-4v-4h4c1.103 0 2 0.897 2 2s-0.897 2-2 2z"></path>
</svg>
