<?xml version="1.0" encoding="utf-8"?>
<!-- Generated by IcoMoon.io -->
<!DOCTYPE svg PUBLIC "-//W3C//DTD SVG 1.1//EN" "http://www.w3.org/Graphics/SVG/1.1/DTD/svg11.dtd">
<svg version="1.1" xmlns="http://www.w3.org/2000/svg" xmlns:xlink="http://www.w3.org/1999/xlink" width="32" height="32" viewBox="0 0 32 32">
<path fill="#444444" d="M28.819 8.843h-1.368c-0.136-0.486-0.329-0.945-0.57-1.37l0.985-0.992c0.445-0.445 0.445-1.165 0-1.609l-0.801-0.808c-0.443-0.442-1.161-0.442-1.602 0l-1.003 1.008c-0.402-0.22-0.831-0.394-1.28-0.521v-1.372c0-0.625-0.505-1.133-1.129-1.133h-1.126c-0.627 0-1.131 0.508-1.131 1.133v1.373c-0.465 0.132-0.91 0.314-1.322 0.547l-1.028-1.035c-0.446-0.442-1.16-0.442-1.605 0l-0.802 0.808c-0.442 0.444-0.442 1.164 0 1.609l1.030 1.035c-0.231 0.413-0.413 0.859-0.546 1.327h-1.365c-0.625 0-1.128 0.506-1.128 1.135v1.129c0 0.626 0.503 1.133 1.128 1.133h1.365c0.129 0.451 0.3 0.882 0.519 1.287l-1.002 1.005c-0.442 0.444-0.442 1.165 0 1.612l0.802 0.805c0.445 0.445 1.159 0.445 1.605 0l0.984-0.992c0.427 0.242 0.882 0.438 1.366 0.575v1.373c0 0.626 0.504 1.132 1.131 1.132h1.126c0.624 0 1.129-0.506 1.129-1.132v-1.373c0.464-0.132 0.907-0.315 1.323-0.548l0.961 0.965c0.44 0.445 1.158 0.445 1.602 0l0.801-0.805c0.445-0.447 0.445-1.168 0-1.612l-0.959-0.964c0.229-0.414 0.414-0.859 0.544-1.328h1.368c0.622 0 1.129-0.507 1.129-1.133v-1.129c-0.002-0.629-0.509-1.135-1.131-1.135zM21.487 13.939c-1.869 0-3.385-1.521-3.385-3.397 0-1.877 1.516-3.399 3.385-3.399s3.387 1.522 3.387 3.399c0 1.876-1.518 3.397-3.387 3.397z"></path>
<path fill="#444444" d="M25.276 10.739c0 2.092-1.696 3.788-3.788 3.788s-3.788-1.696-3.788-3.788c0-2.092 1.696-3.788 3.788-3.788s3.788 1.696 3.788 3.788z"></path>
<path fill="#444444" d="M13.041 18.54c0 1.81-1.468 3.278-3.278 3.278s-3.278-1.468-3.278-3.278c0-1.81 1.468-3.278 3.278-3.278s3.278 1.468 3.278 3.278z"></path>
<path fill="#444444" d="M9.763 22.817c-2.359 0-4.278-1.919-4.278-4.277 0-2.359 1.919-4.278 4.278-4.278s4.278 1.919 4.278 4.278c0 2.358-1.919 4.277-4.278 4.277zM9.763 16.262c-1.256 0-2.278 1.022-2.278 2.278s1.022 2.277 2.278 2.277 2.278-1.021 2.278-2.277-1.022-2.278-2.278-2.278z"></path>
<path fill="#444444" d="M14.334 30.027c0-4.244-2.041-7.685-4.559-7.685s-4.559 3.44-4.559 7.685h9.118z"></path>
<path fill="#444444" d="M15.334 30.027h-2c0-3.561-1.663-6.685-3.559-6.685s-3.559 3.124-3.559 6.685h-2c0-4.87 2.442-8.685 5.559-8.685s5.559 3.815 5.559 8.685z"></path>
<path fill="#444444" d="M4.173 0c-2.305 0-4.173 2.086-4.173 4.658zM0 4.658v22.684c0 2.572 1.868 4.658 4.173 4.658h23.653c2.305 0 4.174-2.086 4.174-4.658v-22.684c0-2.572-1.869-4.658-4.174-4.658h-23.653zM5.652 2h20.696c2.017 0 3.652 1.824 3.652 4.076v19.848c0 2.25-1.635 4.076-3.652 4.076h-20.696c-2.018 0-3.652-1.826-3.652-4.076v-19.848c0-2.252 1.634-4.076 3.652-4.076z"></path>
</svg>
