<?xml version="1.0" encoding="UTF-8"?>
<svg width="16px" height="16px" viewBox="0 0 16 16" version="1.1" xmlns="http://www.w3.org/2000/svg" xmlns:xlink="http://www.w3.org/1999/xlink">
    <!-- Generator: Sketch 42 (36781) - http://www.bohemiancoding.com/sketch -->
    <title>管理</title>
    <desc>Created with Sketch.</desc>
    <defs></defs>
    <g id="Welcome" stroke="none" stroke-width="1" fill="none" fill-rule="evenodd">
        <g id="Desktop-Copy-2" transform="translate(-19.000000, -142.000000)" fill="#D8D8D8">
            <g id="侧边栏-展开" transform="translate(0.000000, 28.000000)">
                <g id="展开" transform="translate(0.000000, 22.000000)">
                    <path d="M21.5357143,92.3947368 C21.7132344,92.1767297 22.0719746,92 22.3532442,92 L31.6467558,92 C31.920745,92 32.2842529,92.1736439 32.4642857,92.3947368 L33.8785714,94.1315789 C34.0560915,94.3495861 33.9738104,94.5263158 33.7043194,94.5263158 L20.2956806,94.5263158 C20.0219238,94.5263158 19.9413958,94.3526719 20.1214286,94.1315789 L21.5357143,92.3947368 Z M19,96.713464 C19,96.4356992 19.226181,96.2105263 19.4963932,96.2105263 L34.5036068,96.2105263 C34.7777572,96.2105263 35,96.4276316 35,96.713464 L35,100.76022 C35,101.037985 34.773819,101.263158 34.5036068,101.263158 L19.4963932,101.263158 C19.2222428,101.263158 19,101.046053 19,100.76022 L19,96.713464 Z M19,103.450306 C19,103.172541 19.226181,102.947368 19.4963932,102.947368 L34.5036068,102.947368 C34.7777572,102.947368 35,103.164474 35,103.450306 L35,107.497062 C35,107.774827 34.773819,108 34.5036068,108 L19.4963932,108 C19.2222428,108 19,107.782895 19,107.497062 L19,103.450306 Z M23.7993096,98.3909462 L23.7993096,99.082738 C23.7993096,99.3587663 24.0241994,99.5789474 24.3016152,99.5789474 L29.6983848,99.5789474 C29.9728619,99.5789474 30.2006904,99.3567869 30.2006904,99.082738 L30.2006904,98.3909462 C30.2006904,98.114918 29.9758006,97.8947368 29.6983848,97.8947368 L24.3016152,97.8947368 C24.0271381,97.8947368 23.7993096,98.1168974 23.7993096,98.3909462 Z M23.7993096,105.127788 L23.7993096,105.81958 C23.7993096,106.095608 24.0241994,106.315789 24.3016152,106.315789 L29.6983848,106.315789 C29.9728619,106.315789 30.2006904,106.093629 30.2006904,105.81958 L30.2006904,105.127788 C30.2006904,104.85176 29.9758006,104.631579 29.6983848,104.631579 L24.3016152,104.631579 C24.0271381,104.631579 23.7993096,104.853739 23.7993096,105.127788 Z" id="管理"></path>
                </g>
            </g>
        </g>
    </g>
</svg>