<?xml version="1.0" encoding="UTF-8"?>
<svg width="16px" height="16px" viewBox="0 0 16 16" version="1.1" xmlns="http://www.w3.org/2000/svg" xmlns:xlink="http://www.w3.org/1999/xlink">
    <!-- Generator: Sketch 42 (36781) - http://www.bohemiancoding.com/sketch -->
    <title>审批</title>
    <desc>Created with Sketch.</desc>
    <defs></defs>
    <g id="Welcome" stroke="none" stroke-width="1" fill="none" fill-rule="evenodd">
        <g id="Desktop-Copy-2" transform="translate(-19.000000, -186.000000)" fill="#D8D8D8">
            <g id="侧边栏-展开" transform="translate(0.000000, 28.000000)">
                <g id="展开" transform="translate(0.000000, 22.000000)">
                    <path d="M24.3333333,138.4 C24.3333333,137.074517 25.5272407,136 27,136 C28.4727593,136 29.6666667,137.074517 29.6666667,138.4 L34.5036068,138.4 C34.7777572,138.4 35,138.624707 35,138.90016 L35,151.49984 C35,151.776071 34.773819,152 34.5036068,152 L19.4963932,152 C19.2222428,152 19,151.775293 19,151.49984 L19,138.90016 C19,138.623929 19.226181,138.4 19.4963932,138.4 L24.3333333,138.4 Z M26.1111111,138.4 L27.8888889,138.4 C27.8888889,137.958172 27.4909198,137.6 27,137.6 C26.5090802,137.6 26.1111111,137.958172 26.1111111,138.4 Z M30.5688111,142.579787 L25.9545976,147.194 L27.2116763,148.451079 L31.8258898,143.836865 L30.5688111,142.579787 Z M23.1435754,144.826768 L22.0122046,145.958139 L25.7611063,149.707041 L26.8924771,148.57567 L23.1435754,144.826768 Z" id="审批"></path>
                </g>
            </g>
        </g>
    </g>
</svg>