<?xml version="1.0" encoding="utf-8"?>
<!-- Generator: Adobe Illustrator 19.0.0, SVG Export Plug-In . SVG Version: 6.00 Build 0)  -->
<svg version="1.1" id="图层_1" xmlns="http://www.w3.org/2000/svg" xmlns:xlink="http://www.w3.org/1999/xlink" x="0px" y="0px"
	 viewBox="0 0 32 32" style="enable-background:new 0 0 32 32;" xml:space="preserve">
<style type="text/css">
	.st0{fill:#444444;}
</style>
<path id="XMLID_13_" class="st0" d="M19.4,9.1h-7c-1.3,0-2.4-1-2.4-2.2V4.5c0-1.2,1-2.2,2.2-2.2h0.2C12.8,1,14.3,0,15.9,0
	s3,1,3.4,2.4h0.2c1.2,0,2.2,1,2.2,2.2V7C21.7,8.1,20.6,9.1,19.4,9.1L19.4,9.1z M12.3,4.3c-0.1,0-0.3,0.1-0.3,0.3V7
	c0,0.1,0.1,0.2,0.3,0.2h6.9c0.2,0,0.3-0.1,0.3-0.2V4.6c0-0.1-0.1-0.3-0.3-0.3h-1.1c-0.5,0.1-0.9-0.4-0.9-0.9V3.1
	c0-0.7-0.7-1.2-1.5-1.2c-0.8,0-1.5,0.5-1.5,1.2v0.3c0,0.5-0.5,1-1,1h-0.9V4.3z"/>
<g id="XMLID_11_">
	<path class="st0" d="M12.1,27.9c-0.4,0-0.8-0.1-1.1-0.4l-6.5-6.9L6,19l6,6.3l14-13.4l1.6,1.6l-14.4,14
		C12.9,27.8,12.5,27.9,12.1,27.9z"/>
</g>
<path class="st0" d="M27.7,3h-4.6v2h3.2c2,0,3.7,1.8,3.7,4.1v16.8c0,2.2-1.6,4.1-3.7,4.1H5.7c-2,0-3.7-1.8-3.7-4.1V9.1
	C2,6.8,3.6,5,5.7,5h2.8V3H4.2C1.9,3,0,5.1,0,7.7v19.7C0,29.9,1.9,32,4.2,32h23.6c2.3,0,4.2-2.1,4.2-4.7V7.7C31.9,5.1,30,3,27.7,3z"
	/>
</svg>
