<?xml version="1.0" encoding="UTF-8"?>
<svg width="16px" height="15px" viewBox="0 0 16 15" version="1.1" xmlns="http://www.w3.org/2000/svg" xmlns:xlink="http://www.w3.org/1999/xlink">
    <!-- Generator: Sketch 42 (36781) - http://www.bohemiancoding.com/sketch -->
    <title>计费</title>
    <desc>Created with Sketch.</desc>
    <defs></defs>
    <g id="Welcome" stroke="none" stroke-width="1" fill="none" fill-rule="evenodd">
        <g id="Desktop-Copy-2" transform="translate(-19.000000, -231.000000)" fill="#D8D8D8">
            <g id="侧边栏-展开" transform="translate(0.000000, 28.000000)">
                <g id="展开" transform="translate(0.000000, 22.000000)">
                    <path d="M31.097561,188 L31.097561,185.71384 C31.097561,185.504825 30.9228428,185.333333 30.7073171,185.333333 C30.4980945,185.333333 30.3170732,185.503692 30.3170732,185.71384 L30.3170732,188.508382 C30.3170732,188.717397 30.4917913,188.888889 30.7073171,188.888889 C30.7171877,188.888889 30.7269956,188.88851 30.7367247,188.887765 C30.7472318,188.88851 30.7578379,188.888889 30.7685309,188.888889 L32.2070789,188.888889 C32.4589047,188.888889 32.6585366,188.689904 32.6585366,188.444444 C32.6585366,188.206163 32.4564121,188 32.2070789,188 L31.097561,188 Z M33.0487805,183.15026 C32.454785,182.839772 31.7939231,182.666667 31.097561,182.666667 C30.0786034,182.666667 29.1356564,183.037306 28.3669904,183.666667 L19.5000035,183.666667 C19.2238592,183.666667 19,183.439308 19,183.165087 L19,181.50158 C19,181.224565 19.2206728,181 19.5000035,181 L32.548777,181 C32.8249213,181 33.0487805,181.227359 33.0487805,181.50158 L33.0487805,183.15026 Z M29.4643226,193 L19.5000035,193 C19.2206728,193 19,193.224565 19,193.50158 L19,195.165087 C19,195.439308 19.2238592,195.666667 19.5000035,195.666667 L32.548777,195.666667 C32.8281077,195.666667 33.0487805,195.442102 33.0487805,195.165087 L33.0487805,193.50158 C33.0487805,193.274282 32.8949784,193.079182 32.6850828,193.019067 C32.18936,193.222476 31.6548278,193.333333 31.097561,193.333333 C30.5231218,193.333333 29.97284,193.215538 29.4643226,193 Z M27.2251784,185 C26.7651451,185.768719 26.4769745,186.681511 26.4236318,187.666667 L19.5030488,187.666667 C19.2252226,187.666667 19,187.439308 19,187.165087 L19,185.50158 C19,185.224565 19.2234152,185 19.5030488,185 L27.2251784,185 Z M26.496817,189 C26.6670528,190.022069 27.0933653,190.940902 27.6968776,191.666667 L19.5030488,191.666667 C19.2252226,191.666667 19,191.439308 19,191.165087 L19,189.50158 C19,189.224565 19.2234152,189 19.5030488,189 L26.496817,189 Z M31.0975501,183.555556 C31.6296994,183.555556 32.1322921,183.673653 32.6053065,183.909898 C33.0783209,184.146118 33.4922437,184.463336 33.8470099,184.861526 C34.2017544,185.259766 34.4826182,185.72882 34.6895796,186.268787 C34.8964977,186.808753 35,187.382434 35,187.989878 C35,188.610843 34.8964977,189.191247 34.6895796,189.731238 C34.4826182,190.27118 34.2017544,190.743645 33.8470099,191.148608 C33.4922437,191.553571 33.0783209,191.870764 32.6053065,192.100261 C32.1322921,192.329733 31.6296994,192.444444 31.0975501,192.444444 C30.5654225,192.444444 30.0628298,192.329733 29.5897938,192.100261 C29.1167794,191.870764 28.7028783,191.553571 28.3481121,191.148608 C27.9933676,190.743645 27.7124821,190.27118 27.5055424,189.731238 C27.2986243,189.191247 27.195122,188.610843 27.195122,187.989878 C27.195122,187.382434 27.2986243,186.808753 27.5055424,186.268787 C27.7124821,185.72882 27.9933676,185.259766 28.3481121,184.861526 C28.7028783,184.463336 29.1167794,184.146118 29.5897938,183.909898 C30.0628298,183.673653 30.5654225,183.555556 31.0975501,183.555556 Z" id="计费"></path>
                </g>
            </g>
        </g>
    </g>
</svg>