<?xml version="1.0" encoding="utf-8"?>
<!-- Generated by IcoMoon.io -->
<!DOCTYPE svg PUBLIC "-//W3C//DTD SVG 1.1//EN" "http://www.w3.org/Graphics/SVG/1.1/DTD/svg11.dtd">
<svg version="1.1" xmlns="http://www.w3.org/2000/svg" xmlns:xlink="http://www.w3.org/1999/xlink" width="32" height="32" viewBox="0 0 32 32">
<path fill="#444444" d="M4.875 12.293h22.249v5.153h-22.249v-5.153z"></path>
<path fill="#444444" d="M9.114 23.492h5.176v1.726h-5.176v-1.726z"></path>
<path fill="#444444" d="M17.771 23.492h5.176v1.726h-5.176v-1.726z"></path>
<path fill="#444444" d="M26.077 13.396v14.979l-20.154-0.005v-14.974h20.154zM26.352 11.396h-20.704c-0.953 0-1.726 0.607-1.726 1.356v16.268c0 0.748 0.772 1.354 1.726 1.354h20.703c0.954 0 1.726-0.606 1.726-1.354v-16.267c0-0.749-0.771-1.357-1.725-1.357v0z"></path>
<path fill="#444444" d="M22.621 11.87c-0.61-0.076-1.106-0.209-1.489-0.399s-0.712-0.498-0.99-0.924c-0.277-0.425-0.44-0.945-0.485-1.558l1.229-0.225c0.095 0.637 0.263 1.104 0.502 1.401 0.343 0.422 0.755 0.654 1.234 0.704v-3.767c-0.502-0.092-1.015-0.281-1.54-0.566-0.389-0.21-0.688-0.5-0.898-0.874s-0.316-0.796-0.316-1.269c0-0.842 0.308-1.523 0.922-2.046 0.412-0.351 1.022-0.564 1.832-0.645l0.72 0.001c0.71 0.065 1.273 0.268 1.688 0.604 0.535 0.431 0.855 1.020 0.963 1.77l-1.262 0.185c-0.071-0.465-0.223-0.821-0.449-1.069-0.229-0.248-0.543-0.411-0.94-0.49v3.413c0.614 0.148 1.022 0.266 1.221 0.349 0.38 0.162 0.69 0.359 0.929 0.591 0.24 0.233 0.425 0.51 0.554 0.828 0.129 0.321 0.192 0.668 0.192 1.041 0 0.819-0.268 1.504-0.807 2.051-0.538 0.549-1.234 0.843-2.089 0.882l-0.721 0.012zM22.621 2.689c-0.474 0.070-0.849 0.254-1.123 0.552s-0.41 0.651-0.41 1.059c0 0.404 0.116 0.741 0.35 1.013 0.233 0.271 0.628 0.489 1.184 0.65v-3.274zM23.341 10.87c0.475-0.058 0.867-0.257 1.178-0.6 0.309-0.341 0.464-0.765 0.464-1.269 0-0.43-0.109-0.775-0.329-1.036s-0.656-0.494-1.312-0.701v3.606h-0.001z"></path>
<path fill="#444444" d="M4.174 0c-2.306 0-4.174 2.086-4.174 4.658zM0 4.658v22.684c0 2.572 1.868 4.658 4.174 4.658h23.652c2.305 0 4.174-2.086 4.174-4.658v-22.684c0-2.572-1.869-4.658-4.174-4.658h-23.652zM5.652 2h20.695c2.018 0 3.653 1.824 3.653 4.076v19.848c0 2.25-1.635 4.076-3.652 4.076h-20.696c-2.017 0-3.652-1.826-3.652-4.076v-19.848c0-2.252 1.635-4.076 3.652-4.076z"></path>
<path fill="#444444" d="M22.446 0.283h1v11.758h-1v-11.758z"></path>
</svg>
