<?xml version="1.0" encoding="utf-8"?>
<!-- Generator: Adobe Illustrator 19.0.0, SVG Export Plug-In . SVG Version: 6.00 Build 0)  -->
<svg version="1.1" id="图层_1" xmlns="http://www.w3.org/2000/svg" xmlns:xlink="http://www.w3.org/1999/xlink" x="0px" y="0px"
	 viewBox="0 0 32 32" style="enable-background:new 0 0 32 32;" xml:space="preserve">
<style type="text/css">
	.st0{fill:#444444;}
</style>
<g>
	<path class="st0" d="M27.8,0h-4.5h-0.2H4.2C1.9,0,0,2.1,0,4.7v22.7C0,29.9,1.9,32,4.2,32h23.6c2.3,0,4.2-2.1,4.2-4.7V4.7
		C32,2.1,30.1,0,27.8,0z M30.1,25.9c0,2.2-1.6,4.1-3.7,4.1H5.8c-2,0-3.7-1.8-3.7-4.1V6.1C2.1,3.8,3.7,2,5.8,2h17.4h0.2h3
		c2,0,3.7,1.8,3.7,4.1L30.1,25.9L30.1,25.9z"/>
	<path class="st0" d="M20.2,25c-0.1-0.6-0.1-1.4,0.5-2l0.2-0.2c1.9-1.5,2.9-3.7,2.9-6.1c0-4.3-3.5-7.7-7.7-7.7s-7.7,3.5-7.7,7.7
		c0,2.4,1.1,4.6,2.9,6.1l0.2,0.2c0.6,0.6,0.6,1.4,0.5,2c-0.3,1.1-0.7,1.6-1.8,2.4c0,0,0.7,0.7,2.3,0c0.8-0.3,1.6-1.2,1.7-2.5
		c0.2-1.7-0.1-2.8-1.2-4c-0.1-0.1-0.1-0.2-0.2-0.2c-1.2-1-1.8-2.4-1.8-4c0-2.9,2.3-5.2,5.2-5.2s5.2,2.3,5.2,5.2c0,1.5-0.7,3-1.8,4
		c-0.1,0-0.2,0.1-0.2,0.2c-1.1,1.1-1.4,2.3-1.2,4c0.2,1.3,0.9,2.2,1.7,2.5c1.6,0.7,2.3,0,2.3,0C20.9,26.7,20.5,26.2,20.2,25z"/>
	<path class="st0" d="M16.1,4.3C9.2,4.3,3.6,9.9,3.6,16.8c0,3.8,1.7,7.4,4.7,9.8l1.6-1.9c-2.4-1.9-3.7-4.8-3.7-7.8
		c0-5.5,4.5-10,10-10s10,4.5,10,10c0,3-1.4,5.9-3.7,7.8l1.6,1.9c3-2.4,4.7-5.9,4.7-9.8C28.6,9.9,23,4.3,16.1,4.3z"/>
	<circle class="st0" cx="16.1" cy="16.8" r="2.6"/>
</g>
</svg>
