<?xml version="1.0" encoding="UTF-8"?>
<svg width="16px" height="16px" viewBox="0 0 16 16" version="1.1" xmlns="http://www.w3.org/2000/svg" xmlns:xlink="http://www.w3.org/1999/xlink">
    <!-- Generator: Sketch 42 (36781) - http://www.bohemiancoding.com/sketch -->
    <title>项目</title>
    <desc>Created with Sketch.</desc>
    <defs></defs>
    <g id="Welcome" stroke="none" stroke-width="1" fill="none" fill-rule="evenodd">
        <g id="Desktop-Copy-2" transform="translate(-19.000000, -98.000000)" fill="#D8D8D8">
            <g id="侧边栏-展开" transform="translate(0.000000, 28.000000)">
                <g id="展开" transform="translate(0.000000, 22.000000)">
                    <path d="M19,48.4963932 C19,48.2222428 19.2169661,48 19.5069578,48 L24.2056721,48 C24.4856571,48 24.8992659,48.1058841 25.1483422,48.2471924 L27.410508,49.5305854 C27.6511452,49.667106 28.0681633,49.7777778 28.3379285,49.7777778 L34.5082917,49.7777778 C34.7798547,49.7777778 35,50.0011749 35,50.2839542 L35,63.4938236 C35,63.7733771 34.773819,64 34.5036068,64 L19.4963932,64 C19.2222428,64 19,63.773819 19,63.5036068 L19,48.4963932 Z M22.2,54.7269067 L22.2,55.4953156 C22.2,55.7820095 22.4266558,56 22.70625,56 L23.29375,56 C23.5775269,56 23.8,55.7740451 23.8,55.4953156 L23.8,54.7269067 C23.8,54.4402127 23.5733442,54.2222222 23.29375,54.2222222 L22.70625,54.2222222 C22.4224731,54.2222222 22.2,54.4481771 22.2,54.7269067 Z M24.6,54.7269067 L24.6,55.4953156 C24.6,55.7820095 24.8215676,56 25.0948852,56 L31.3051148,56 C31.5766231,56 31.8,55.7740451 31.8,55.4953156 L31.8,54.7269067 C31.8,54.4402127 31.5784324,54.2222222 31.3051148,54.2222222 L25.0948852,54.2222222 C24.8233769,54.2222222 24.6,54.4481771 24.6,54.7269067 Z M22.2,59.1713511 L22.2,59.93976 C22.2,60.226454 22.4266558,60.4444444 22.70625,60.4444444 L23.29375,60.4444444 C23.5775269,60.4444444 23.8,60.2184895 23.8,59.93976 L23.8,59.1713511 C23.8,58.8846571 23.5733442,58.6666667 23.29375,58.6666667 L22.70625,58.6666667 C22.4224731,58.6666667 22.2,58.8926216 22.2,59.1713511 Z M24.6,59.1713511 L24.6,59.93976 C24.6,60.226454 24.8215676,60.4444444 25.0948852,60.4444444 L31.3051148,60.4444444 C31.5766231,60.4444444 31.8,60.2184895 31.8,59.93976 L31.8,59.1713511 C31.8,58.8846571 31.5784324,58.6666667 31.3051148,58.6666667 L25.0948852,58.6666667 C24.8233769,58.6666667 24.6,58.8926216 24.6,59.1713511 Z" id="项目"></path>
                </g>
            </g>
        </g>
    </g>
</svg>