<?xml version="1.0" encoding="utf-8"?>
<!-- Generator: Adobe Illustrator 19.0.0, SVG Export Plug-In . SVG Version: 6.00 Build 0)  -->
<svg version="1.1" id="图层_1" xmlns="http://www.w3.org/2000/svg" xmlns:xlink="http://www.w3.org/1999/xlink" x="0px" y="0px"
	 viewBox="0 0 32 32" style="enable-background:new 0 0 32 32;" xml:space="preserve">
<style type="text/css">
	.st0{fill:#444444;}
</style>
<g>
	<path class="st0" d="M27.7,0H4.2C1.9,0,0,2.1,0,4.7v22.7C0,29.9,1.9,32,4.2,32h23.6c2.3,0,4.2-2.1,4.2-4.7V4.7
		C31.9,2.1,30,0,27.7,0z M30,25.9c0,2.2-1.6,4.1-3.7,4.1H5.7c-2,0-3.7-1.8-3.7-4.1V6.1C2,3.8,3.6,2,5.7,2h20.6c2,0,3.7,1.8,3.7,4.1
		V25.9z"/>
	<path class="st0" d="M22.3,17.2c-0.6,0-1.2,0.5-1.2,1.2c0,0.7,0.5,1.2,1.2,1.2s1.2-0.5,1.2-1.2C23.5,17.7,23,17.2,22.3,17.2z"/>
	<path class="st0" d="M22.3,9.6c-0.6,0-1.2,0.5-1.2,1.2s0.5,1.2,1.2,1.2s1.2-0.5,1.2-1.2S23,9.6,22.3,9.6z"/>
	<path class="st0" d="M25.5,5.8H6.6c-1.1,0-1.9,0.9-1.9,1.9v13.8c0,1.1,0.9,1.9,1.9,1.9h8.1v1.3c-0.2,0.2-0.4,0.4-0.6,0.6H8.3
		c-0.7,0-1.2,0.5-1.2,1.2s0.5,1.2,1.2,1.2h15.6c0.7,0,1.2-0.5,1.2-1.2s-0.5-1.2-1.2-1.2h-6.3c-0.2-0.2-0.4-0.4-0.6-0.6v-1.3h8.6
		c1.1,0,1.9-0.9,1.9-1.9V7.7C27.4,6.6,26.5,5.8,25.5,5.8z M24.9,20c0,0.6-0.5,1-1,1H8c-0.6,0-1-0.5-1-1v-3.1c0-0.6,0.4-1.1,1-1.1h16
		c0.6,0,1,0.5,1,1V20z M24.9,12.3c0,0.6-0.5,1-1,1H8c-0.6,0-1-0.5-1-1V9.2c0-0.6,0.4-1,1-1h16c0.6,0,1,0.5,1,1V12.3z"/>
</g>
</svg>
