<?xml version="1.0" encoding="utf-8"?>
<!-- Generator: Adobe Illustrator 19.0.0, SVG Export Plug-In . SVG Version: 6.00 Build 0)  -->
<svg version="1.1" id="图层_1" xmlns="http://www.w3.org/2000/svg" xmlns:xlink="http://www.w3.org/1999/xlink" x="0px" y="0px"
	 viewBox="0 0 32 32" style="enable-background:new 0 0 32 32;" xml:space="preserve">
<style type="text/css">
	.st0{fill:#444444;}
</style>
<path id="XMLID_1_" class="st0" d="M31.8,9.1c-0.2-0.3-0.6-0.5-0.9-0.5c-0.2,0-0.5,0.1-0.7,0.2l-10.5,7.4l-7.3-5.1
	c-0.2-0.1-0.4-0.2-0.7-0.2l0,0l0,0c-0.2,0-0.5,0.1-0.7,0.2L0.5,18.5c-0.5,0.4-0.6,1.1-0.3,1.6c0.2,0.3,0.6,0.5,0.9,0.5
	c0.2,0,0.5-0.1,0.7-0.2l9.9-6.9l7.3,5.1c0.2,0.1,0.5,0.2,0.7,0.2s0.4-0.1,0.7-0.2l11.1-7.8C32,10.4,32.2,9.7,31.8,9.1L31.8,9.1z"/>
<g>
	<path class="st0" d="M2,13.7V6.1C2,3.8,3.6,2,5.7,2h20.6c2,0,3.7,1.8,3.7,4.1v0.2L32,5V4.7C31.9,2.1,30,0,27.7,0H4.2
		C1.9,0,0,2.1,0,4.7v10.2L2,13.7z"/>
	<path class="st0" d="M30,15.9v10c0,2.2-1.6,4.1-3.7,4.1H5.7c-2,0-3.7-1.8-3.7-4.1v-2.5l-2,1.2v2.8C0,29.9,1.9,32,4.2,32h23.6
		c2.3,0,4.2-2.1,4.2-4.7V14.7L30,15.9z"/>
</g>
</svg>
