<?xml version="1.0" encoding="utf-8"?>
<!-- Generated by IcoMoon.io -->
<!DOCTYPE svg PUBLIC "-//W3C//DTD SVG 1.1//EN" "http://www.w3.org/Graphics/SVG/1.1/DTD/svg11.dtd">
<svg version="1.1" xmlns="http://www.w3.org/2000/svg" xmlns:xlink="http://www.w3.org/1999/xlink" width="32" height="32" viewBox="0 0 32 32">
<path fill="#444444" d="M10.011 12.45h14v10h-14v-10z"></path>
<path fill="#444444" d="M10.013 9.077h5v3.4h-5v-3.4z"></path>
<path fill="#444444" d="M18.999 12.465h-4v-3.39z"></path>
<path fill="#444444" d="M27.826 0h-4.118v2h2.64c2.017 0 3.652 1.825 3.652 4.076v19.848c0 2.25-1.635 4.076-3.652 4.076h-20.696c-2.017 0-3.652-1.826-3.652-4.076v-19.848c0-2.251 1.635-4.076 3.652-4.076h14.056v-2h-15.534c-2.306 0-4.174 2.085-4.174 4.658v22.684c0 2.572 1.868 4.658 4.174 4.658h23.652c2.307 0 4.174-2.086 4.174-4.658v-22.684c0-2.573-1.867-4.658-4.174-4.658z"></path>
</svg>
