<?xml version="1.0" encoding="utf-8"?>
<!-- Generator: Adobe Illustrator 19.0.0, SVG Export Plug-In . SVG Version: 6.00 Build 0)  -->
<svg version="1.1" id="图层_1" xmlns="http://www.w3.org/2000/svg" xmlns:xlink="http://www.w3.org/1999/xlink" x="0px" y="0px"
	 viewBox="0 0 32 32" style="enable-background:new 0 0 32 32;" xml:space="preserve">
<style type="text/css">
	.st0{fill:#444444;}
</style>
<path class="st0" d="M27.7,0H4.2C1.9,0,0,2.1,0,4.7v22.7C0,29.9,1.9,32,4.2,32h23.6c2.3,0,4.2-2.1,4.2-4.7V4.7C31.9,2.1,30,0,27.7,0
	z M30,25.9c0,2.2-1.6,4.1-3.7,4.1H5.7c-2,0-3.7-1.8-3.7-4.1v-3.6c0.7,0.3,5.7,2.2,14.1,2.2c9.1,0,14-2.1,14-2.1V25.9z M16,22.1
	C7.7,22.1,2.8,20.3,2,20v-6.6c1,0.4,6,2.2,14.1,2.2c8.1,0,13-1.7,14-2.1V20C30,20,25,22.1,16,22.1z"/>
</svg>
