<?xml version="1.0" encoding="UTF-8"?>
<svg width="16px" height="14px" viewBox="0 0 16 14" version="1.1" xmlns="http://www.w3.org/2000/svg" xmlns:xlink="http://www.w3.org/1999/xlink">
    <!-- Generator: Sketch 42 (36781) - http://www.bohemiancoding.com/sketch -->
    <title>存储</title>
    <desc>Created with Sketch.</desc>
    <defs></defs>
    <g id="Welcome" stroke="none" stroke-width="1" fill="none" fill-rule="evenodd">
        <g id="Desktop-Copy-2" transform="translate(-19.000000, -274.000000)" fill="#D8D8D8">
            <g id="侧边栏-展开" transform="translate(0.000000, 28.000000)">
                <g id="展开" transform="translate(0.000000, 22.000000)">
                    <path d="M30.9798091,229.628305 C31.1176479,229.60961 31.257862,229.6 31.4,229.6 C33.3882251,229.6 35,231.480404 35,233.8 C35,235.961858 33.5999802,237.742226 31.8,237.974367 L31.8,238 L23.8,238 L23.8,237.979073 C23.6682552,237.992924 23.5348359,238 23.4,238 C20.9699471,238 19,235.701728 19,232.866667 C19,230.461814 20.4174462,228.4432 22.330809,227.885944 C22.8084572,225.653687 24.5386974,224 26.6,224 C29.0300529,224 31,226.298272 31,229.133333 C31,229.300306 30.9931669,229.465416 30.9798091,229.628305 Z M25.4,234.5 L25.4,238 L27.8,238 L27.8,234.5 L25.4,234.5 Z M26.6,231.875 L23.8,234.5 L29.4,234.5 L26.6,231.875 Z" id="存储"></path>
                </g>
            </g>
        </g>
    </g>
</svg>