<?xml version="1.0" encoding="utf-8"?>
<!-- Generator: Adobe Illustrator 19.0.0, SVG Export Plug-In . SVG Version: 6.00 Build 0)  -->
<svg version="1.1" id="图层_1" xmlns="http://www.w3.org/2000/svg" xmlns:xlink="http://www.w3.org/1999/xlink" x="0px" y="0px"
	 viewBox="0 0 32 32" style="enable-background:new 0 0 32 32;" xml:space="preserve">
<style type="text/css">
	.st0{fill:#444444;}
</style>
<path id="XMLID_8_" class="st0" d="M27.8,0H4.2C1.9,0,0,2.1,0,4.7v22.7C0,29.9,1.9,32,4.2,32h23.7c2.3,0,4.2-2.1,4.2-4.7V4.7
	C32,2.1,30.1,0,27.8,0z M15.6,2h6.6v8.7h-6.6V2z M30,25.9c0,1.8-1,3.3-2.5,3.8V21H4.9v8.9c-1.7-0.4-2.9-2-2.9-4V6.1
	c0-2,1.3-3.6,2.9-4c0,0,0,0.1,0,0.1v10.3H24V2.2c0-0.1,0-0.1,0-0.2h2.4c2,0,3.7,1.8,3.7,4.1V25.9z"/>
</svg>
