<?xml version="1.0" encoding="UTF-8"?>
<svg width="17px" height="15px" viewBox="0 0 17 15" version="1.1" xmlns="http://www.w3.org/2000/svg" xmlns:xlink="http://www.w3.org/1999/xlink">
    <!-- Generator: Sketch 42 (36781) - http://www.bohemiancoding.com/sketch -->
    <title>子账户</title>
    <desc>Created with Sketch.</desc>
    <defs></defs>
    <g id="Welcome" stroke="none" stroke-width="1" fill="none" fill-rule="evenodd">
        <g id="Desktop-Copy-2" transform="translate(-20.000000, -342.000000)" fill="#D8D8D8">
            <g id="侧边栏-展开" transform="translate(0.000000, 28.000000)">
                <g id="展开" transform="translate(0.000000, 22.000000)">
                    <path d="M20.7572046,292 L36.7572046,292 L36.7572046,307 L20.7572046,307 L20.7572046,292 Z M27.2310455,302.999248 C27.2310455,302.417833 27.2550203,301.884892 27.2249566,301.355909 C27.1874386,300.695594 26.7348499,300.095626 26.1523809,300.044454 C25.3945445,299.978032 24.6260077,299.977149 23.8675669,300.036841 C23.3430761,300.078031 22.9445483,300.481631 22.853059,301.06166 C22.7533543,301.692633 22.7836641,302.349697 22.7572046,302.999248 L27.2310455,302.999248 M25.0193422,295.947424 C24.2496638,295.943012 23.6495775,296.61089 23.6509654,297.470648 C23.6523757,298.325013 24.2616848,299.003679 25.0197675,298.995512 C25.7827079,298.98737 26.3699226,298.312434 26.3676393,297.446197 C26.365356,296.603731 25.7789024,295.951734 25.0193422,295.947424 Z M31.738237,300.998726 C32.5179474,300.998726 33.2974349,301.002458 34.0770215,300.997146 C34.526153,300.994249 34.7394681,300.843428 34.7560714,300.53968 C34.7742359,300.208406 34.5746247,300.013487 34.1130036,300.009712 C32.5406221,299.996586 30.967745,299.99641 29.3954379,300.011358 C28.9385499,300.015617 28.7409707,300.215277 28.7582431,300.548504 C28.7739791,300.855501 28.9775801,300.995105 29.4398207,300.997607 C30.2058521,301.001778 30.9720569,300.998726 31.738237,300.998726 M31.7278527,302.993863 L31.7278527,302.996491 C32.5111732,302.996491 33.2945934,303.001412 34.0779388,302.994649 C34.528019,302.990695 34.7515755,302.826535 34.7571108,302.523848 C34.7625464,302.224104 34.5313851,302.009462 34.1131703,302.006564 C32.5198003,301.995466 30.9261559,301.999443 29.3327111,302.011013 C29.1853523,302.012158 28.9789502,302.070166 28.9062432,302.166613 C28.804987,302.300871 28.7105128,302.548808 28.7824718,302.65368 C28.8899365,302.810135 29.1401223,302.969779 29.3380718,302.978811 C30.1329367,303.015004 30.9309183,302.993863 31.7278527,302.993863 M34.1384911,298.99636 C34.5232202,298.99029 34.76416,298.796905 34.7570515,298.498621 C34.7476645,298.109983 34.4594252,298.017645 34.1688393,298.012555 C33.2212564,297.995745 32.2729673,297.995745 31.3253617,298.012976 C30.9595432,298.019723 30.7235703,298.252962 30.7611181,298.524863 C30.8094428,298.874651 31.0463955,298.999442 31.3683321,298.998438 C31.8362453,298.997014 32.3040901,298.998064 32.7719349,298.998018 C33.2274536,298.998018 33.6830863,299.003434 34.1384911,298.99636 Z" id="子账户"></path>
                </g>
            </g>
        </g>
    </g>
</svg>