<?xml version="1.0" encoding="utf-8"?>
<!-- Generator: Adobe Illustrator 19.0.0, SVG Export Plug-In . SVG Version: 6.00 Build 0)  -->
<svg version="1.1" id="图层_1" xmlns="http://www.w3.org/2000/svg" xmlns:xlink="http://www.w3.org/1999/xlink" x="0px" y="0px"
	 viewBox="0 0 32 32" style="enable-background:new 0 0 32 32;" xml:space="preserve">
<style type="text/css">
	.st0{fill:#444444;}
</style>
<path class="st0" d="M27.7,0H4.2C1.9,0,0,2.1,0,4.7v22.7C0,29.9,1.9,32,4.2,32h23.6c2.3,0,4.2-2.1,4.2-4.7V4.7C31.9,2.1,30,0,27.7,0
	z M30,25.9c0,2.2-1.6,4.1-3.7,4.1H5.7c-2,0-3.7-1.8-3.7-4.1V6.1C2,3.8,3.6,2,5.7,2h20.6c2,0,3.7,1.8,3.7,4.1V25.9z"/>
<path class="st0" d="M11.4,14.8H8.4v-3.1H6.5v3.1H3.6v2h2.9v3.1h1.9l0-3.1h2.9V14.8L11.4,14.8z M21.1,15.8c2.5,0,4.4-1.9,4.4-4.4
	c0-2.5-1.9-4.4-4.4-4.4c-0.4,0-0.9,0.1-1.3,0.1c0.9,1.3,1.3,2.6,1.3,4.2c0,1.6-0.4,2.9-1.3,4.2C20.2,15.7,20.7,15.8,21.1,15.8
	L21.1,15.8z M15.3,15.8c2.4,0,4.2-1.9,4.2-4.4c0-2.5-1.8-4.4-4.2-4.4c-2.4,0-4.2,1.9-4.2,4.4C11.1,13.9,12.9,15.8,15.3,15.8
	L15.3,15.8z M22.3,17.9c1.1,1,1.9,2.5,1.9,4.1v2.9h4.2V22C28.4,19.8,25.1,18.4,22.3,17.9L22.3,17.9z M15.3,17.6
	C12.9,17.6,8,19.1,8,22v2.9h14.5V22C22.6,19.1,17.7,17.6,15.3,17.6L15.3,17.6z"/>
</svg>
