<?xml version="1.0" encoding="UTF-8"?>
<svg width="17px" height="16px" viewBox="0 0 17 16" version="1.1" xmlns="http://www.w3.org/2000/svg" xmlns:xlink="http://www.w3.org/1999/xlink">
    <!-- Generator: Sketch 42 (36781) - http://www.bohemiancoding.com/sketch -->
    <title>工单</title>
    <desc>Created with Sketch.</desc>
    <defs></defs>
    <g id="Welcome" stroke="none" stroke-width="1" fill="none" fill-rule="evenodd">
        <g id="Desktop-Copy-2" transform="translate(-18.000000, -317.000000)" fill="#D8D8D8">
            <g id="侧边栏-展开" transform="translate(0.000000, 28.000000)">
                <g id="展开" transform="translate(0.000000, 22.000000)">
                    <path d="M18.8761905,267.496393 C18.8761905,267.222243 19.097087,267 19.3735682,267 L29.9541495,267 C30.2288436,267 30.6195763,267.152989 30.8211611,267.336509 L34.5065566,270.691641 C34.7106997,270.87749 34.8761905,271.256614 34.8761905,271.527324 L34.8761905,282.500826 C34.8761905,282.776512 34.6500094,283 34.3797973,283 L19.3725837,283 C19.0984333,283 18.8761905,282.773819 18.8761905,282.503607 L18.8761905,267.496393 Z M20.6539683,272.30625 L20.6539683,272.89375 C20.6539683,273.177527 20.8819406,273.4 21.1631588,273.4 L26.3669999,273.4 C26.6547383,273.4 26.8761905,273.173344 26.8761905,272.89375 L26.8761905,272.30625 C26.8761905,272.022473 26.6482181,271.8 26.3669999,271.8 L21.1631588,271.8 C20.8754204,271.8 20.6539683,272.026656 20.6539683,272.30625 Z M20.6539683,275.50625 L20.6539683,276.09375 C20.6539683,276.377527 20.8792809,276.6 21.1572182,276.6 L32.5951628,276.6 C32.8824161,276.6 33.0984127,276.373344 33.0984127,276.09375 L33.0984127,275.50625 C33.0984127,275.222473 32.8731,275 32.5951628,275 L21.1572182,275 C20.8699649,275 20.6539683,275.226656 20.6539683,275.50625 Z M20.6539683,278.70625 L20.6539683,279.29375 C20.6539683,279.577527 20.8792809,279.8 21.1572182,279.8 L32.5951628,279.8 C32.8824161,279.8 33.0984127,279.573344 33.0984127,279.29375 L33.0984127,278.70625 C33.0984127,278.422473 32.8731,278.2 32.5951628,278.2 L21.1572182,278.2 C20.8699649,278.2 20.6539683,278.426656 20.6539683,278.70625 Z M29.5428571,269.1 L29.5428571,271.3 C29.5428571,271.569864 29.7642007,271.8 30.0372419,271.8 L32.6040279,271.8 C32.8651228,271.8 32.9340497,271.652073 32.7312977,271.469596 L29.9099722,268.930404 C29.714349,268.754343 29.5428571,268.823858 29.5428571,269.1 Z" id="工单"></path>
                </g>
            </g>
        </g>
    </g>
</svg>