<?xml version="1.0" encoding="utf-8"?>
<!-- Generator: Adobe Illustrator 19.0.0, SVG Export Plug-In . SVG Version: 6.00 Build 0)  -->
<svg version="1.1" id="图层_1" xmlns="http://www.w3.org/2000/svg" xmlns:xlink="http://www.w3.org/1999/xlink" x="0px" y="0px"
	 viewBox="0 0 32 32" style="enable-background:new 0 0 32 32;" xml:space="preserve">
<style type="text/css">
	.st0{fill:#444444;}
</style>
<g id="XMLID_6_">
	<polyline id="XMLID_5_" class="st0" points="6.4,25.5 14.7,23.1 8.8,17.1 6.4,25.5 6.4,25.5 	"/>
	<polyline id="XMLID_4_" class="st0" points="28.8,9.2 22.8,3.2 9.6,16.3 15.6,22.3 28.8,9.2 28.8,9.2 	"/>
	<path id="XMLID_2_" class="st0" d="M31.6,4.2l-3.7-3.7c-0.6-0.6-1.6-0.6-2.3,0.1l-1.8,1.8l6,6l1.8-1.8C32.1,5.8,32.2,4.8,31.6,4.2
		L31.6,4.2L31.6,4.2"/>
</g>
<path class="st0" d="M30,12.3v13.6c0,2.2-1.6,4.1-3.7,4.1H5.7c-2,0-3.7-1.8-3.7-4.1V6.1C2,3.8,3.6,2,5.7,2h14l0,0l2-2H4.2
	C1.9,0,0,2.1,0,4.7v22.7C0,29.9,1.9,32,4.2,32h23.6c2.3,0,4.2-2.1,4.2-4.7v-17L30,12.3z"/>
</svg>
