<?xml version="1.0" encoding="utf-8"?>
<!-- Generator: Adobe Illustrator 19.0.0, SVG Export Plug-In . SVG Version: 6.00 Build 0)  -->
<svg version="1.1" id="图层_1" xmlns="http://www.w3.org/2000/svg" xmlns:xlink="http://www.w3.org/1999/xlink" x="0px" y="0px"
	 viewBox="0 0 48 48" style="enable-background:new 0 0 48 48;" xml:space="preserve">
<style type="text/css">
	.st0{fill:#272636;}
</style>
<path id="XMLID_5_" class="st0" d="M40.9,39c-0.2,0.8-0.4,1.4-0.7,2c-0.7,1.1-1.7,1.9-3.1,2.3c-0.6,0.2-3.5,0.1-4.3,0.1
	c-1.2,0-2.3,0-3.5,0c-5.3,0-10.7,0-16,0c-1.3,0-2.7,0-4,0c-0.7,0-1.6,0.1-2.2-0.1c-0.9-0.2-1.6-0.6-2.3-1.1
	c-0.9-0.7-1.6-1.8-1.8-3.2c-0.1-0.6-0.1-1.4-0.1-2.2c0-1.3,0-2.6,0-3.9c0-6.7,0-10.7,0-17.4c0-1.4,0-2.8,0-4.3
	c0-0.8-0.1-1.7,0.1-2.3c0.2-1.1,0.6-1.9,1.2-2.6c0.7-0.9,1.8-1.5,3.2-1.7c0.5,0,0.9,0,1.4,0c0.9,0,1.8,0,2.6,0c3.7,0,13.2,0,16.9,0
	c0-0.7,0-0.8,0-1.4c0-0.5,0-1,0-1.4c-3.6,0-12.7,0-16.3,0c-1.8,0-4.2-0.2-5.7,0.2C4.4,2.5,2.9,3.4,1.9,4.7c-0.8,1-1.4,2.2-1.8,3.7
	C0,9.2,0,10.3,0,11.3c0,1.5,0,2.9,0,4.4c0,6.6,0,10.4,0,17.1c0,1.4,0,2.8,0,4.2c0,0.9,0,1.9,0.1,2.6c0.4,2,1.3,3.7,2.7,4.8
	c1,0.8,2.1,1.4,3.6,1.7c0.8,0.2,1.9,0.1,2.8,0.1c1.6,0,3.2,0,4.8,0c4.8,0,9.6,0,14.5,0c1.3,0,2.5,0,3.7,0c1.3,0,4.7,0,5.7-0.3
	c1.9-0.6,3.4-1.8,4.4-3.4c0.6-0.9,0.9-1.9,1.2-3.1c0.1-0.7,0.1-1.6,0.1-2.4c0-1.3,0-2.6,0-3.9c0-5.8,0-3.3,0-9.1c-1.1,0-1.8,0-2.7,0
	"/>
<path id="XMLID_4_" class="st0" d="M26.4,32.3c-3.3,0-6.7,0-10,0c-1,0-1.9,0-2.9,0c-0.5,0-1.1,0-1.5,0.1c-0.7,0.3-1.2,1.2-0.7,1.9
	c0.2,0.4,0.6,0.4,1,0.6c4.7,0,9.3,0,14,0c0.7,0,1.4,0,2.2,0c0.4,0,0.9,0,1.1-0.1c0.4-0.1,0.6-0.4,0.8-0.7c0.1-0.1,0.2-0.4,0.1-0.6
	C30.3,31.9,28.3,32.3,26.4,32.3z"/>
<path id="XMLID_3_" class="st0" d="M30.5,25.2c-0.2-1.1-0.9-1.3-2.3-1.3c-0.6,0-1.3,0-1.9,0c-3.4,0-6.7,0-10.1,0c-1,0-1.9,0-2.9,0
	c-0.5,0-1.1,0-1.5,0.1c-0.6,0.3-1.1,1.2-0.7,2c0.3,0.4,0.6,0.5,1.1,0.7c4.7,0,9.3,0,14,0c1.6,0,3.5,0.3,4.1-0.8
	C30.5,25.7,30.6,25.4,30.5,25.2z"/>
<path id="XMLID_2_" class="st0" d="M46.5,5.1c-0.2,0.1-0.4,0.1-0.6,0.2c-0.3,0.2-0.4,0.4-0.6,0.6c-0.4,0.4-0.8,0.8-1.1,1.2
	c-1,1.1-2,2.1-3.1,3.2c-3.8,3.9-4.8,5.1-8.6,9c0,0,0,0,0,0c-2-2.1-4-4.2-6-6.2c-0.5-0.5-1.1-1.4-2.1-1c-0.3,0.1-0.5,0.2-0.6,0.4
	c-0.9,1.2,0.4,2.2,1,2.9c1.7,1.8,3.5,3.6,5.2,5.4c0.5,0.6,1.5,1.9,2.3,2c0.8,0.1,1.2-0.5,1.6-0.9c1-1.1,2.1-2.2,3.1-3.3
	c4.5-4.6,6.1-6.5,10.6-11.1C48.4,6.5,47.8,5.1,46.5,5.1z"/>
<path id="XMLID_6_" class="st0" d="M20.6,15.6c-2.6,0-2.4,0-5,0c-0.8,0-1.6,0-2.5,0c-0.3,0-0.8-0.1-1.1,0c-0.6,0.2-1.2,1.2-0.8,2.1
	c0.3,0.5,0.5,0.5,1,0.7c4.2,0,9.9,0,9.9,0s0,0,0,0"/>
</svg>
