<?xml version="1.0" encoding="utf-8"?>
<!-- Generator: Adobe Illustrator 19.0.0, SVG Export Plug-In . SVG Version: 6.00 Build 0)  -->
<svg version="1.1" id="图层_1" xmlns="http://www.w3.org/2000/svg" xmlns:xlink="http://www.w3.org/1999/xlink" x="0px" y="0px"
	 viewBox="0 0 32 32" style="enable-background:new 0 0 32 32;" xml:space="preserve">
<style type="text/css">
	.st0{fill:#444444;}
</style>
<path class="st0" d="M27.7,0h-6H10.1H4.2C1.9,0,0,2.1,0,4.7v22.7C0,29.9,1.9,32,4.2,32h23.6c2.3,0,4.2-2.1,4.2-4.7V4.7
	C31.9,2.1,30,0,27.7,0z M26.3,2c2,0,3.7,1.8,3.7,4.1v17h-2.5v-7.6h-0.6h-0.7h-9.8v-3.8h5.3V2H26.3z M5.7,2h4.4v9.7h5.2v3.8H5.5H4.8
	H4.2v7.6H2v-17C2,3.8,3.6,2,5.7,2z M8.3,30v-6.9H5.5v-6.3h9.8v6.3h-2.8V30H8.3z M19.3,30v-6.9h-2.9v-6.3h9.8v6.3h-2.8V30H19.3z"/>
</svg>
