<?xml version="1.0" encoding="utf-8"?>
<!-- Generator: Adobe Illustrator 16.0.0, SVG Export Plug-In . SVG Version: 6.00 Build 0)  -->
<!DOCTYPE svg PUBLIC "-//W3C//DTD SVG 1.1//EN" "http://www.w3.org/Graphics/SVG/1.1/DTD/svg11.dtd">
<svg version="1.1" id="图层_1" xmlns="http://www.w3.org/2000/svg" xmlns:xlink="http://www.w3.org/1999/xlink" x="0px" y="0px"
	 width="32px" height="32px" viewBox="0 0 32 32" enable-background="new 0 0 32 32" xml:space="preserve">
<g>
	<path fill="#444444" d="M21.658,20.4H10.794c-1.198,0-2.173-0.987-2.173-2.201V7.2c0-1.213,0.975-2.2,2.173-2.2h10.864
		c1.197,0,2.174,0.987,2.174,2.2v10.999C23.832,19.413,22.855,20.4,21.658,20.4z M10.794,6.101c-0.599,0-1.086,0.492-1.086,1.1V18.2
		c0,0.606,0.487,1.102,1.086,1.102h10.864c0.6,0,1.086-0.493,1.086-1.102v-11c0-0.607-0.486-1.1-1.086-1.1L10.794,6.101
		L10.794,6.101z"/>
</g>
<g>
	<path fill="#444444" d="M18.037,27H7.173C5.975,27,5,26.014,5,24.801v-11c0-1.214,0.975-2.2,2.173-2.2h10.864
		c1.197,0,2.173,0.986,2.173,2.2v11C20.21,26.014,19.234,27,18.037,27z M7.173,12.7c-0.599,0-1.087,0.493-1.087,1.101v11
		c0,0.605,0.488,1.098,1.087,1.098h10.864c0.6,0,1.086-0.491,1.086-1.098v-11c0-0.607-0.486-1.101-1.086-1.101H7.173z"/>
</g>
<g>
	<path fill="#444444" d="M24.827,23.699H13.963c-1.198,0-2.173-0.987-2.173-2.199v-11c0-1.213,0.975-2.2,2.173-2.2h10.864
		C26.025,8.3,27,9.287,27,10.5v11C27,22.712,26.025,23.699,24.827,23.699z M13.963,9.4c-0.599,0-1.086,0.493-1.086,1.1v11
		c0,0.607,0.487,1.1,1.086,1.1h10.864c0.6,0,1.086-0.492,1.086-1.1v-11c0-0.606-0.486-1.1-1.086-1.1H13.963z"/>
</g>
<path fill="#444444" d="M4.173,0C1.868,0,0,2.086,0,4.658L4.173,0z M0,4.658v22.684C0,29.914,1.868,32,4.173,32h23.653
	C30.131,32,32,29.914,32,27.342V4.658C32,2.086,30.131,0,27.826,0H4.173L0,4.658z M5.652,2h20.696C28.365,2,30,3.824,30,6.076
	v19.848C30,28.174,28.365,30,26.348,30H5.652C3.634,30,2,28.174,2,25.924V6.076C2,3.824,3.634,2,5.652,2L5.652,2z"/>
</svg>
