<?xml version="1.0" encoding="iso-8859-1"?>
<!-- Generator: Adobe Illustrator 16.0.4, SVG Export Plug-In . SVG Version: 6.00 Build 0)  -->
<!DOCTYPE svg PUBLIC "-//W3C//DTD SVG 1.1//EN" "http://www.w3.org/Graphics/SVG/1.1/DTD/svg11.dtd">
<svg version="1.1" id="&#x56FE;&#x5C42;_1" xmlns="http://www.w3.org/2000/svg" xmlns:xlink="http://www.w3.org/1999/xlink" x="0px"
	 y="0px" width="14px" height="14px" viewBox="0 0 14 14" style="enable-background:new 0 0 14 14;" xml:space="preserve">
<path d="M7.006,13.986H7c-3.854,0-6.986-3.134-6.986-6.985c0-1.867,0.726-3.622,2.045-4.941s3.075-2.046,4.942-2.046
	c3.852,0,6.985,3.134,6.985,6.986C13.986,10.852,10.855,13.986,7.006,13.986z M7.001,1.013c-1.6,0-3.104,0.623-4.234,1.753
	S1.014,5.401,1.014,7.001c0,3.301,2.683,5.985,5.981,5.985l0.011,0.5v-0.5c3.297,0,5.98-2.687,5.98-5.987S10.302,1.013,7.001,1.013z
	"/>
<path d="M7.001,13.964c-0.276,0-0.5-0.224-0.5-0.5V0.537c0-0.276,0.224-0.5,0.5-0.5s0.5,0.224,0.5,0.5v12.927
	C7.501,13.74,7.277,13.964,7.001,13.964z"/>
<path d="M13.463,7.499H0.537c-0.276,0-0.5-0.224-0.5-0.5s0.224-0.5,0.5-0.5h12.926c0.276,0,0.5,0.224,0.5,0.5
	S13.739,7.499,13.463,7.499z"/>
<path d="M6.583,13.964c-0.108,0-0.217-0.035-0.309-0.106c-0.127-0.101-3.11-2.494-3.11-6.858c0-4.361,2.983-6.755,3.11-6.855
	c0.218-0.17,0.531-0.133,0.701,0.083C7.146,0.444,7.109,0.758,6.893,0.93C6.866,0.951,4.164,3.139,4.164,6.999
	c0,3.884,2.701,6.05,2.728,6.071c0.217,0.171,0.255,0.485,0.084,0.702C6.877,13.898,6.731,13.964,6.583,13.964z"/>
<path d="M7.418,13.964c-0.148,0-0.294-0.065-0.393-0.19c-0.171-0.217-0.134-0.531,0.083-0.702c0.027-0.021,2.729-2.208,2.729-6.072
	c0-3.86-2.702-6.048-2.729-6.069C6.891,0.758,6.854,0.444,7.025,0.228C7.196,0.013,7.51-0.026,7.726,0.144
	c0.127,0.1,3.11,2.494,3.11,6.855c0,4.364-2.983,6.758-3.11,6.858C7.635,13.929,7.525,13.964,7.418,13.964z"/>
<path d="M7.001,5.415c-4.223,0-5.404-2.264-5.452-2.36C1.425,2.808,1.525,2.507,1.772,2.384c0.245-0.122,0.544-0.025,0.669,0.22
	c0.044,0.084,1.009,1.812,4.56,1.812c3.56,0,4.518-1.738,4.556-1.812c0.128-0.243,0.427-0.34,0.673-0.214
	c0.243,0.125,0.342,0.421,0.22,0.666C12.401,3.151,11.222,5.415,7.001,5.415z"/>
<path d="M12.002,11.671c-0.184,0-0.359-0.102-0.447-0.276c-0.037-0.069-0.995-1.81-4.554-1.81c-3.562,0-4.521,1.74-4.56,1.814
	c-0.127,0.242-0.428,0.339-0.672,0.214s-0.343-0.421-0.22-0.666c0.048-0.097,1.229-2.362,5.452-2.362c4.221,0,5.4,2.267,5.448,2.362
	c0.123,0.247,0.023,0.548-0.224,0.671C12.153,11.654,12.077,11.671,12.002,11.671z"/>
</svg>
