<?xml version="1.0" encoding="utf-8"?>
<!-- Generator: Adobe Illustrator 21.0.0, SVG Export Plug-In . SVG Version: 6.00 Build 0)  -->
<svg version="1.1" id="图层_1" xmlns="http://www.w3.org/2000/svg" xmlns:xlink="http://www.w3.org/1999/xlink" x="0px" y="0px"
	 viewBox="0 0 32 32" style="enable-background:new 0 0 32 32;" xml:space="preserve">
<g>
	<path d="M31,6.3H16.6c-0.6,0-1-0.4-1-1v0c0-0.6,0.4-1,1-1H31c0.6,0,1,0.4,1,1v0C32,5.9,31.6,6.3,31,6.3z"/>
</g>
<g>
	<path d="M31,13.4H16.6c-0.6,0-1-0.4-1-1v0c0-0.6,0.4-1,1-1H31c0.6,0,1,0.4,1,1v0C32,13,31.6,13.4,31,13.4z"/>
</g>
<g>
	<path d="M11,2.4H2c-1.1,0-2,0.9-2,2v9c0,1.1,0.9,2,2,2h9c1.1,0,2-0.9,2-2v-9C13,3.3,12.1,2.4,11,2.4z M11,12.4c0,0.6-0.4,1-1,1H3
		c-0.6,0-1-0.4-1-1v-7c0-0.6,0.4-1,1-1h7c0.6,0,1,0.4,1,1V12.4z"/>
</g>
<g>
	<path d="M31,20.6H16.6c-0.6,0-1-0.4-1-1v0c0-0.6,0.4-1,1-1H31c0.6,0,1,0.4,1,1v0C32,20.1,31.6,20.6,31,20.6z"/>
</g>
<g>
	<path d="M31,27.7H16.6c-0.6,0-1-0.4-1-1v0c0-0.6,0.4-1,1-1H31c0.6,0,1,0.4,1,1v0C32,27.2,31.6,27.7,31,27.7z"/>
</g>
<g>
	<path d="M11,16.6H2c-1.1,0-2,0.9-2,2v9c0,1.1,0.9,2,2,2h9c1.1,0,2-0.9,2-2v-9C13,17.5,12.1,16.6,11,16.6z M11,26.6c0,0.6-0.4,1-1,1
		H3c-0.6,0-1-0.4-1-1v-7c0-0.6,0.4-1,1-1h7c0.6,0,1,0.4,1,1V26.6z"/>
</g>
</svg>
