<?xml version="1.0" encoding="iso-8859-1"?>
<!-- Generator: Adobe Illustrator 16.0.4, SVG Export Plug-In . SVG Version: 6.00 Build 0)  -->
<!DOCTYPE svg PUBLIC "-//W3C//DTD SVG 1.1//EN" "http://www.w3.org/Graphics/SVG/1.1/DTD/svg11.dtd">
<svg version="1.1" id="&#x56FE;&#x5C42;_1" xmlns="http://www.w3.org/2000/svg" xmlns:xlink="http://www.w3.org/1999/xlink" x="0px"
	 y="0px" width="14px" height="14px" viewBox="0 0 14 14" style="enable-background:new 0 0 14 14;" xml:space="preserve">
<path d="M7.001,13.938c-1.853,0-3.595-0.722-4.906-2.033c-1.311-1.309-2.032-3.051-2.032-4.903s0.722-3.595,2.032-4.905
	S5.147,0.063,7,0.063s3.594,0.722,4.904,2.032c1.312,1.31,2.033,3.052,2.033,4.905s-0.722,3.594-2.033,4.904
	C10.596,13.216,8.854,13.938,7.001,13.938z M7,1.063c-1.586,0-3.077,0.618-4.199,1.739S1.062,5.416,1.062,7.001
	c0,1.586,0.618,3.076,1.739,4.196c1.122,1.122,2.614,1.74,4.199,1.74c1.586,0,3.075-0.618,4.196-1.74
	c1.122-1.121,1.74-2.611,1.74-4.197s-0.618-3.076-1.74-4.198C10.076,1.681,8.586,1.063,7,1.063z"/>
<rect x="6.085" y="9.285" width="1" height="0.829"/>
<path d="M7.085,8.452h-1V8.246c0-1.538,1.063-2.085,1.108-2.108c0.39-0.197,0.969-0.654,0.969-1.006
	c0-0.588-0.445-0.954-1.162-0.954c-1.161,0-1.161,0.364-1.161,0.539h-1c0-0.702,0.375-1.539,2.161-1.539
	c1.273,0,2.162,0.803,2.162,1.954c0,1.108-1.366,1.823-1.522,1.901C7.624,7.042,7.085,7.347,7.085,8.246V8.452z"/>
</svg>
