<?xml version="1.0" encoding="utf-8"?>
<!-- Generator: Adobe Illustrator 16.0.0, SVG Export Plug-In . SVG Version: 6.00 Build 0)  -->
<!DOCTYPE svg PUBLIC "-//W3C//DTD SVG 1.1//EN" "http://www.w3.org/Graphics/SVG/1.1/DTD/svg11.dtd">
<svg version="1.1" id="图层_1" xmlns="http://www.w3.org/2000/svg" xmlns:xlink="http://www.w3.org/1999/xlink" x="0px" y="0px"
	 width="32px" height="32px" viewBox="0 0 32 32" enable-background="new 0 0 32 32" xml:space="preserve">
<g>
	<path fill="none" stroke="#5A7B89" stroke-width="2" stroke-miterlimit="10" d="M1.097,27.229"/>
</g>
<g>
	<path fill="none" stroke="#5A7B89" stroke-width="2" stroke-miterlimit="10" d="M1,1"/>
</g>
<g>
	<path fill="#5A7B89" d="M27.849,32H4.183c-1.187,0-2.152-0.897-2.152-2v-8c0-0.364,0.105-0.706,0.289-1
		c-0.184-0.294-0.289-0.636-0.289-1v-8c0-0.364,0.105-0.706,0.289-1c-0.184-0.294-0.289-0.636-0.289-1V2c0-1.103,0.965-2,2.152-2
		h23.666C29.035,0,30,0.897,30,2v8c0,0.364-0.105,0.706-0.289,1C29.895,11.294,30,11.636,30,12v8c0,0.364-0.105,0.706-0.289,1
		C29.895,21.294,30,21.636,30,22v8C30,31.103,29.035,32,27.849,32z M27.849,30v1V30L27.849,30L27.849,30z M4.183,22v8h23.663
		l0.003-8H4.183z M4.183,20h23.663l0.003-8H4.183V20z M4.183,10h23.663l0.003-8H4.183V10z"/>
</g>
<g>
	<rect x="2.031" y="10" fill="#5A7B89" width="27.969" height="2"/>
</g>
<g>
	<rect x="2.031" y="20" fill="#5A7B89" width="27.969" height="2"/>
</g>
<g>
	<rect x="16" y="5" fill="#5A7B89" width="8" height="2"/>
</g>
<g>
	<rect x="16" y="15" fill="#5A7B89" width="8" height="2"/>
</g>
<g>
	<rect x="16" y="25" fill="#5A7B89" width="8" height="2"/>
</g>
</svg>
