<?xml version="1.0" encoding="utf-8"?>
<!-- Generator: Adobe Illustrator 16.0.0, SVG Export Plug-In . SVG Version: 6.00 Build 0)  -->
<!DOCTYPE svg PUBLIC "-//W3C//DTD SVG 1.1//EN" "http://www.w3.org/Graphics/SVG/1.1/DTD/svg11.dtd">
<svg version="1.1" id="图层_1" xmlns="http://www.w3.org/2000/svg" xmlns:xlink="http://www.w3.org/1999/xlink" x="0px" y="0px"
	 width="32px" height="32px" viewBox="0 0 32 32" enable-background="new 0 0 32 32" xml:space="preserve">
<path fill="none" stroke="#5A7B89" stroke-width="2" stroke-miterlimit="10" d="M1.097,27.229"/>
<path fill="none" stroke="#5A7B89" stroke-width="2" stroke-miterlimit="10" d="M1,1"/>
<g>
	<path fill="none" stroke="#5A7B89" stroke-width="2" stroke-miterlimit="10" d="M28,20c0,0.55-0.45,1-1,1H5c-0.55,0-1-0.45-1-1v-8
		c0-0.55,0.45-1,1-1h22c0.55,0,1,0.45,1,1V20z M28,22c0-0.55-0.45-1-1-1H5c-0.55,0-1,0.45-1,1v8c0,0.55,0.45,1,1,1h22
		c0.55,0,1-0.45,1-1V22z M28,2c0-0.55-0.45-1-1-1H5C4.45,1,4,1.45,4,2v8c0,0.55,0.45,1,1,1h22c0.55,0,1-0.45,1-1V2z"/>
</g>
<line fill="none" stroke="#5A7B89" stroke-width="2" stroke-miterlimit="10" x1="3" y1="11" x2="29" y2="11"/>
<line fill="none" stroke="#5A7B89" stroke-width="2" stroke-miterlimit="10" x1="3" y1="21" x2="29" y2="21"/>
<line fill="none" stroke="#5A7B89" stroke-width="2" stroke-miterlimit="10" x1="16" y1="6" x2="24" y2="6"/>
<line fill="none" stroke="#5A7B89" stroke-width="2" stroke-miterlimit="10" x1="16" y1="16" x2="24" y2="16"/>
<line fill="none" stroke="#5A7B89" stroke-width="2" stroke-miterlimit="10" x1="16" y1="26" x2="24" y2="26"/>
</svg>
