<?xml version="1.0" encoding="utf-8"?>
<!-- Generator: Adobe Illustrator 16.0.4, SVG Export Plug-In . SVG Version: 6.00 Build 0)  -->
<!DOCTYPE svg PUBLIC "-//W3C//DTD SVG 1.1//EN" "http://www.w3.org/Graphics/SVG/1.1/DTD/svg11.dtd">
<svg version="1.1" id="图层_1" xmlns="http://www.w3.org/2000/svg" xmlns:xlink="http://www.w3.org/1999/xlink" x="0px" y="0px"
	 width="32px" height="32px" viewBox="0 0 32 32" enable-background="new 0 0 32 32" xml:space="preserve">
<path fill="#444444" d="M30,1.985v10H2v-10H30z M30-0.015H2c-1.104,0-2,0.896-2,2v10c0,1.104,0.896,2,2,2h28c1.104,0,2-0.896,2-2
	v-10C32,0.881,31.104-0.015,30-0.015L30-0.015z"/>
<path fill="#444444" d="M30,20.014v10.002H2V20.014H30z M30,18.014H2c-1.104,0-2,0.896-2,2v10.002c0,1.104,0.896,2,2,2h28
	c1.104,0,2-0.896,2-2V20.014C32,18.909,31.104,18.014,30,18.014L30,18.014z"/>
<line fill="none" stroke="#444444" stroke-width="2" stroke-miterlimit="10" x1="3.875" y1="6.985" x2="11.25" y2="6.985"/>
<line fill="none" stroke="#444444" stroke-width="2" stroke-miterlimit="10" x1="12.375" y1="6.985" x2="19.75" y2="6.985"/>
<line fill="none" stroke="#444444" stroke-width="2" stroke-miterlimit="10" x1="20.875" y1="6.985" x2="28.25" y2="6.985"/>
<line fill="none" stroke="#444444" stroke-width="2" stroke-miterlimit="10" x1="3.875" y1="24.984" x2="11.25" y2="24.984"/>
<line fill="none" stroke="#444444" stroke-width="2" stroke-miterlimit="10" x1="12.375" y1="24.984" x2="19.75" y2="24.984"/>
<line fill="none" stroke="#444444" stroke-width="2" stroke-miterlimit="10" x1="20.875" y1="24.984" x2="28.25" y2="24.984"/>
</svg>
