<?xml version="1.0" encoding="utf-8"?>
<!-- Generated by IcoMoon.io -->
<!DOCTYPE svg PUBLIC "-//W3C//DTD SVG 1.1//EN" "http://www.w3.org/Graphics/SVG/1.1/DTD/svg11.dtd">
<svg version="1.1" xmlns="http://www.w3.org/2000/svg" xmlns:xlink="http://www.w3.org/1999/xlink" width="32" height="32" viewBox="0 0 32 32">
<path fill="#444444" d="M16 0c-8.822 0-16 7.177-16 15.999s7.178 16.001 16 16.001c8.821 0 16-7.179 16-16.001s-7.179-15.999-16-15.999zM25.116 5.469l-3.449 3.45c-1.558-1.241-3.479-1.919-5.514-1.919-2.099 0-4.093 0.715-5.716 2.023l-3.553-3.553c2.447-2.122 5.63-3.417 9.116-3.417s6.669 1.295 9.116 3.416zM20.897 20.893c-1.358 1.359-3.151 2.107-5.051 2.107-1.839 0-3.561-0.708-4.848-1.994-2.7-2.7-2.653-7.141 0.105-9.901 1.357-1.357 3.151-2.105 5.050-2.105 1.839 0 3.562 0.709 4.849 1.996 1.306 1.305 2.016 3.050 1.998 4.916-0.018 1.873-0.765 3.642-2.103 4.981zM2.054 15.999c0-3.485 1.294-6.668 3.416-9.115l3.553 3.553c-2.648 3.292-2.69 7.978-0.105 11.231l-3.448 3.447c-2.121-2.447-3.416-5.63-3.416-9.116zM6.884 26.529l3.448-3.447c1.558 1.24 3.48 1.918 5.514 1.918 2.1 0 4.094-0.715 5.716-2.024l3.555 3.555c-2.447 2.121-5.631 3.415-9.116 3.415s-6.669-1.295-9.117-3.417zM26.53 25.116l-3.555-3.555c1.291-1.6 2.005-3.563 2.024-5.63s-0.659-4.019-1.919-5.598l3.45-3.45c2.121 2.447 3.416 5.63 3.416 9.116 0.001 3.486-1.294 6.67-3.416 9.117z"></path>
</svg>
