<?xml version="1.0" encoding="utf-8"?>
<!-- Generated by IcoMoon.io -->
<!DOCTYPE svg PUBLIC "-//W3C//DTD SVG 1.1//EN" "http://www.w3.org/Graphics/SVG/1.1/DTD/svg11.dtd">
<svg version="1.1" xmlns="http://www.w3.org/2000/svg" xmlns:xlink="http://www.w3.org/1999/xlink" width="32" height="32" viewBox="0 0 32 32">
<path fill="#444444" d="M12 13c0 0.14-0.005 0.279-0.014 0.416-0.213 3.12-2.811 5.584-5.986 5.584-3.314 0-6-2.685-6-6zM20.948 12.723l4.861-9.723h0.382l4.862 9.723 0.895-0.447-4.947-9.895v-1.381h-9.277c-0.346-0.595-0.984-1-1.723-1s-1.376 0.405-1.723 1h-9.277v1.381l-4.947 9.895 0.894 0.447 4.862-9.723h0.382l4.862 9.723 0.895-0.447-4.638-9.276h6.968c0.175 0.3 0.422 0.548 0.723 0.723v23.277l-10 2v2h21.997l0.003-2-10-2v-23.277c0.3-0.175 0.548-0.422 0.723-0.723h6.968l-4.638 9.276 0.895 0.447zM32 13c0 0.14-0.005 0.279-0.015 0.416-0.213 3.121-2.811 5.584-5.985 5.584-3.315 0-6-2.685-6-6z"></path>
</svg>
