<?xml version="1.0" encoding="utf-8"?>
<!-- Generated by IcoMoon.io -->
<!DOCTYPE svg PUBLIC "-//W3C//DTD SVG 1.1//EN" "http://www.w3.org/Graphics/SVG/1.1/DTD/svg11.dtd">
<svg version="1.1" xmlns="http://www.w3.org/2000/svg" xmlns:xlink="http://www.w3.org/1999/xlink" width="32" height="32" viewBox="0 0 32 32">
<path fill="#444444" d="M15.75 31.922c-3.493 0-5.75-1.548-5.75-3.942v-7.542c0-0.486 0.351-0.902 0.83-0.985 0.078-0.014 7.889-1.435 7.889-6.546 0-1.181-0.258-2.012-0.789-2.54-1.023-1.017-3.153-1.006-5.268-0.993l-0.662 0.001v-2l0.651-0.002c2.523-0.016 5.102-0.029 6.715 1.575 0.928 0.923 1.366 2.218 1.366 3.958 0 5.673-6.396 7.763-8.732 8.338v6.735c0 1.849 3.124 1.942 3.75 1.942 3.334 0 5.375-3.497 5.375-5.401 0-2.771 1.264-4.425 2.486-6.023 1.161-1.521 2.258-2.955 2.519-5.495 0.276-2.682-0.654-5.497-2.488-7.529-2.038-2.258-5.056-3.452-8.725-3.452-5.603 0-8.688 2.556-8.688 7.198 0 1.277 0.385 2.25 1.177 2.974 1.595 1.459 4.572 1.573 5.573 1.484l0.021 1.965c-0.182 0.015-4.379 0.373-6.944-1.973-1.212-1.109-1.827-2.606-1.827-4.45 0-5.759 3.995-9.198 10.688-9.198 5.371 0 8.517 2.236 10.209 4.112 2.207 2.446 3.326 5.838 2.994 9.074-0.319 3.101-1.701 4.909-2.92 6.504-1.159 1.518-2.075 2.716-2.075 4.81 0 3.017-2.873 7.401-7.375 7.401z"></path>
</svg>
