<?xml version="1.0" encoding="utf-8"?>
<!-- Generated by IcoMoon.io -->
<!DOCTYPE svg PUBLIC "-//W3C//DTD SVG 1.1//EN" "http://www.w3.org/Graphics/SVG/1.1/DTD/svg11.dtd">
<svg version="1.1" xmlns="http://www.w3.org/2000/svg" xmlns:xlink="http://www.w3.org/1999/xlink" width="32" height="32" viewBox="0 0 32 32">
<path fill="#444444" d="M2 15h5v2h-5v-2z"></path>
<path fill="#444444" d="M20 15h11v2h-11v-2z"></path>
<path fill="#444444" d="M7 17l-1.506-0.984 4.568-8h1.969z"></path>
<path fill="#444444" d="M16 23.979l-5.938-15.963h1.969l5.969 15.963z"></path>
<path fill="#444444" d="M18.002 23.979h-2.002l4-8.979h2.031z"></path>
<path fill="#444444" d="M30 29h-28c-1.103 0-2-0.938-2-2.091v-21.818c0-1.153 0.897-2.091 2-2.091h28c1.103 0 2 0.938 2 2.091v21.818c0 1.153-0.897 2.091-2 2.091zM2.006 5c0.016 0.003-0.006 0.035-0.006 0.091v21.818c0 0.062 0.027 0.095 0.034 0.1l27.941-0.009c0.009-0.014 0.025-0.044 0.025-0.091v-21.818c0-0.062-0.026-0.094-0.034-0.1l-27.96 0.009z"></path>
</svg>
