<?xml version="1.0" encoding="utf-8"?>
<!-- Generated by IcoMoon.io -->
<!DOCTYPE svg PUBLIC "-//W3C//DTD SVG 1.1//EN" "http://www.w3.org/Graphics/SVG/1.1/DTD/svg11.dtd">
<svg version="1.1" xmlns="http://www.w3.org/2000/svg" xmlns:xlink="http://www.w3.org/1999/xlink" width="32" height="32" viewBox="0 0 32 32">
<path fill="#444444" d="M29.999 28h-27.999c-1.103 0-2-0.86-2-1.917v-20.166c0-1.057 0.897-1.917 2-1.917h27.999c1.104 0 2.001 0.86 2.001 1.917v20.167c0 1.056-0.897 1.916-2.001 1.916zM30 5.917l-28 0.083v20.083l27.999-0.083c0.023 0 0.033-0.007 0.033-0.007l-0.032-20.076z"></path>
<path fill="#444444" d="M16.011 20.43c-0.447 0-0.889-0.135-1.238-0.405l-14.26-11.080 1.227-1.579 14.259 11.077c0.004-0.007 0.093-0.018 0.128-0.045l14.133-10.979 1.227 1.579-14.133 10.98c-0.386 0.3-0.868 0.452-1.343 0.452z"></path>
</svg>
