<?xml version="1.0" encoding="utf-8"?>
<!-- Generated by IcoMoon.io -->
<!DOCTYPE svg PUBLIC "-//W3C//DTD SVG 1.1//EN" "http://www.w3.org/Graphics/SVG/1.1/DTD/svg11.dtd">
<svg version="1.1" xmlns="http://www.w3.org/2000/svg" xmlns:xlink="http://www.w3.org/1999/xlink" width="32" height="32" viewBox="0 0 32 32">
<path fill="#444444" d="M16 0c-8.822 0-16 7.178-16 16s7.178 16 16 16c8.822 0 16-7.178 16-16s-7.178-16-16-16zM16 29.867c-7.646 0-13.867-6.221-13.867-13.867s6.221-13.867 13.867-13.867c7.646 0 13.867 6.221 13.867 13.867s-6.221 13.867-13.867 13.867z"></path>
<path fill="#444444" d="M14.463 14.526l-0.004 0.004c-0.365 0.383-0.592 0.899-0.592 1.47 0 1.178 0.955 2.133 2.133 2.133 0.939 0 1.727-0.61 2.013-1.453l0.004 0.002 2.369-7.93-5.85 5.701c-0.026 0.023-0.049 0.047-0.074 0.071z"></path>
<path fill="#444444" d="M4.289 14.978h2.123v2.133h-2.123v-2.133z"></path>
<path fill="#444444" d="M25.622 14.978h2.122v2.133h-2.122v-2.133z"></path>
<path fill="#444444" d="M14.933 4.321h2.133v2.123h-2.133v-2.123z"></path>
<path fill="#444444" d="M7.045 12.349l-1.88-0.985 0.989-1.89 1.88 0.985-0.989 1.89z"></path>
<path fill="#444444" d="M9.901 8.483l-1.181-1.764 1.772-1.187 1.181 1.764-1.772 1.187z"></path>
<path fill="#444444" d="M23.965 10.486l1.88-0.985 0.989 1.89-1.88 0.985-0.989-1.89z"></path>
<path fill="#444444" d="M22.101 8.512l-1.773-1.188 1.181-1.764 1.773 1.188-1.181 1.764z"></path>
</svg>
