<?xml version="1.0" encoding="utf-8"?>
<!-- Generated by IcoMoon.io -->
<!DOCTYPE svg PUBLIC "-//W3C//DTD SVG 1.1//EN" "http://www.w3.org/Graphics/SVG/1.1/DTD/svg11.dtd">
<svg version="1.1" xmlns="http://www.w3.org/2000/svg" xmlns:xlink="http://www.w3.org/1999/xlink" width="32" height="32" viewBox="0 0 32 32">
<path fill="#444444" d="M21.608 1.002l-0.708 1.87c5.306 1.994 9.1 7.11 9.1 13.112 0 7.728-6.282 14.014-14 14.014-7.72 0-14-6.288-14-14.014 0-6.010 3.806-11.132 9.126-13.12-0.22-0.568-0.46-1.184-0.726-1.864-6.064 2.278-10.4 8.126-10.4 14.984 0 8.83 7.178 16.016 16 16.016s16-7.186 16-16.016c0-6.856-4.332-12.7-10.392-14.982zM15 0h2v12h-2v-12z"></path>
</svg>
