<?xml version="1.0" encoding="utf-8"?>
<!-- Generated by IcoMoon.io -->
<!DOCTYPE svg PUBLIC "-//W3C//DTD SVG 1.1//EN" "http://www.w3.org/Graphics/SVG/1.1/DTD/svg11.dtd">
<svg version="1.1" xmlns="http://www.w3.org/2000/svg" xmlns:xlink="http://www.w3.org/1999/xlink" width="32" height="32" viewBox="0 0 32 32">
<path fill="#444444" d="M25.275 28.047h-21.961c-0.543 0-1.024-0.229-1.318-0.629-0.279-0.379-0.356-0.864-0.211-1.334l4.62-14.685c0.25-0.781 1.086-1.368 1.948-1.368h21.874c0.868 0 1.295 0.367 1.5 0.675 0.302 0.452 0.26 0.971 0.12 1.305l-4.488 14.24c-0.349 1.123-1.129 1.796-2.084 1.796zM3.895 26.047h21.354c0.030-0.028 0.118-0.128 0.2-0.394l4.299-13.622h-21.395l-4.458 14.016z"></path>
<path fill="#444444" d="M25.109 28.047h-21.527c-0.996 0-1.849-0.794-1.94-1.808l-1.592-18.164c-0.003-0.844 0.57-1.667 1.63-1.679 0.268-0.004 0.625-0.001 1.27 0.002 0.936 0.005 2.487 0.013 5.285 0.014l0.29-2.412h10.609l0.165 2.131c0.612 0.002 1.748 0.010 2.934 0.019 1.525 0.011 3.132 0.022 3.8 0.022 1.095 0 1.748 0.745 1.892 1.437l0.020 0.165 0.098 2.563-1.998 0.076-0.086-2.239c-0.765-0.004-2.288-0.015-3.739-0.025-1.377-0.010-2.688-0.019-3.18-0.019-0.597 0-1.055-0.171-1.36-0.509-0.204-0.226-0.323-0.52-0.331-0.81l-0.067-0.811-6.987 0.023-0.107 0.89c-0.004 0.236-0.063 0.67-0.401 1.034-0.277 0.3-0.674 0.465-1.117 0.465-3.080 0-4.746-0.008-5.731-0.014-0.371-0.001-0.644-0.002-0.859-0.003l0.12 1.601 1.433 16.064 21.476-0.014v2.001z"></path>
</svg>
