<?xml version="1.0" encoding="utf-8"?>
<!-- Generated by IcoMoon.io -->
<!DOCTYPE svg PUBLIC "-//W3C//DTD SVG 1.1//EN" "http://www.w3.org/Graphics/SVG/1.1/DTD/svg11.dtd">
<svg version="1.1" xmlns="http://www.w3.org/2000/svg" xmlns:xlink="http://www.w3.org/1999/xlink" width="32" height="32" viewBox="0 0 32 32">
<path fill="#444444" d="M16 0c-8.836 0-16 7.164-16 16s7.164 16 16 16c8.834 0 16-7.164 16-16s-7.164-16-16-16zM17.132 24.292h-2.402v-2.402h2.402v2.402zM20.942 13.58c-0.352 0.632-1.040 1.402-2.062 2.308-0.688 0.61-1.138 1.060-1.35 1.348s-0.366 0.622-0.468 0.996-0.16 0.984-0.176 1.828h-2.028c-0.008-0.28-0.012-0.492-0.012-0.632 0-0.828 0.118-1.542 0.352-2.144 0.172-0.454 0.45-0.91 0.832-1.372 0.282-0.336 0.786-0.826 1.516-1.47 0.732-0.646 1.208-1.158 1.426-1.542s0.328-0.8 0.328-1.254c0-0.82-0.32-1.542-0.96-2.162-0.642-0.62-1.426-0.932-2.356-0.932-0.898 0-1.65 0.282-2.25 0.844s-0.998 1.442-1.186 2.638l-2.168-0.258c0.196-1.602 0.776-2.828 1.74-3.68s2.24-1.278 3.828-1.278c1.68 0 3.020 0.458 4.020 1.372s1.5 2.020 1.5 3.316c0 0.75-0.176 1.442-0.526 2.074z"></path>
</svg>
