<?xml version="1.0" encoding="utf-8"?>
<!-- Generated by IcoMoon.io -->
<!DOCTYPE svg PUBLIC "-//W3C//DTD SVG 1.1//EN" "http://www.w3.org/Graphics/SVG/1.1/DTD/svg11.dtd">
<svg version="1.1" xmlns="http://www.w3.org/2000/svg" xmlns:xlink="http://www.w3.org/1999/xlink" width="32" height="32" viewBox="0 0 32 32">
<path fill="#444444" d="M12.244 2.922l-0.596-1.922c-6.434 1.898-11.148 7.88-11.148 14.958 0 4.766 2.16 9.012 5.52 11.874l-4.166 4.168h10v-10l-4.412 4.412c-3.004-2.492-4.942-6.24-4.942-10.454 0-6.176 4.124-11.394 9.744-13.036zM25.946 4.056l4.054-4.056h-10v10l4.518-4.518c3.028 2.49 4.982 6.246 4.982 10.478 0 6.25-4.226 11.516-9.952 13.090l0.484 1.952c6.596-1.794 11.466-7.848 11.466-15.042 0.002-4.786-2.17-9.046-5.552-11.904z"></path>
</svg>
