<?xml version="1.0" encoding="utf-8"?>
<!-- Generated by IcoMoon.io -->
<!DOCTYPE svg PUBLIC "-//W3C//DTD SVG 1.1//EN" "http://www.w3.org/Graphics/SVG/1.1/DTD/svg11.dtd">
<svg version="1.1" xmlns="http://www.w3.org/2000/svg" xmlns:xlink="http://www.w3.org/1999/xlink" width="32" height="32" viewBox="0 0 32 32">
<path fill="#444444" d="M19.736 24.468l-0.64 1.3c3.442 0.434 5.52 1.526 5.52 2.334 0 1.028-3.356 2.52-8.616 2.52-5.258 0-8.614-1.492-8.614-2.52 0-0.958 2.898-2.308 7.526-2.498l1.086 2.178 7.468-14.96h-0.006c0.734-1.258 1.164-2.716 1.164-4.276 0.002-4.718-3.86-8.546-8.622-8.546s-8.626 3.828-8.626 8.546c0 1.558 0.43 3.018 1.162 4.276h-0.004l5.71 11.442c-4.332 0.278-8.244 1.584-8.244 3.84 0 2.558 5.032 3.896 10 3.896 4.97 0 10-1.338 10-3.896 0-1.906-2.788-3.134-6.264-3.636zM12.378 7.496c0-1.984 1.624-3.594 3.622-3.594 2.004 0 3.626 1.61 3.626 3.594 0 1.98-1.622 3.59-3.626 3.59-1.998 0-3.622-1.61-3.622-3.59z"></path>
</svg>
