<?xml version="1.0" encoding="utf-8"?>
<!-- Generated by IcoMoon.io -->
<!DOCTYPE svg PUBLIC "-//W3C//DTD SVG 1.1//EN" "http://www.w3.org/Graphics/SVG/1.1/DTD/svg11.dtd">
<svg version="1.1" xmlns="http://www.w3.org/2000/svg" xmlns:xlink="http://www.w3.org/1999/xlink" width="32" height="32" viewBox="0 0 32 32">
<path fill="#444444" d="M15.972 10.445c-7.693 0-15.972-1.628-15.972-5.2s8.279-5.2 15.972-5.2 15.972 1.627 15.972 5.2-8.279 5.2-15.972 5.2zM15.972 2.178c-9.131 0-13.839 2.149-13.839 3.067s4.708 3.067 13.839 3.067 13.839-2.149 13.839-3.067-4.709-3.067-13.839-3.067z"></path>
<path fill="#444444" d="M16 31.867c-7.693 0-15.972-1.627-15.972-5.2h2.133c0 0.916 4.708 3.067 13.839 3.067s13.839-2.15 13.839-3.067h2.133c0 3.573-8.279 5.2-15.972 5.2z"></path>
<path fill="#444444" d="M29.867 5.333h2.133v21.333h-2.133v-21.333z"></path>
<path fill="#444444" d="M0 5.333h2.133v21.333h-2.133v-21.333z"></path>
<path fill="#444444" d="M13.521 26.339l-7.586-7.585 1.509-1.508 6.077 6.076 11.035-11.035 1.509 1.508-11.036 11.036z"></path>
</svg>
