<?xml version="1.0" encoding="utf-8"?>
<!-- Generated by IcoMoon.io -->
<!DOCTYPE svg PUBLIC "-//W3C//DTD SVG 1.1//EN" "http://www.w3.org/Graphics/SVG/1.1/DTD/svg11.dtd">
<svg version="1.1" xmlns="http://www.w3.org/2000/svg" xmlns:xlink="http://www.w3.org/1999/xlink" width="32" height="32" viewBox="0 0 32 32">
<path fill="#444444" d="M16.185 15.949c2.632-1.441 4.421-4.237 4.421-7.444 0-4.677-3.805-8.483-8.481-8.483-4.678 0-8.483 3.806-8.483 8.483 0 3.123 1.702 5.851 4.223 7.322-3.39 1.773-7.717 6.465-7.717 16.11h2c0-12.224 7.317-14.987 8.664-14.987v-0.075c0.429 0.067 0.865 0.112 1.312 0.112 0.304 0 0.604-0.018 0.9-0.049v0.012c1.346 0 8.663 2.764 8.663 14.987h2c0.001-9.448-4.148-14.134-7.502-15.988zM5.641 8.505c0-3.575 2.908-6.483 6.483-6.483s6.481 2.908 6.481 6.483c0 3.574-2.908 6.482-6.481 6.482-3.575 0-6.483-2.908-6.483-6.482z"></path>
<path fill="#444444" d="M22.012 4.062h9.988v2h-9.988v-2z"></path>
<path fill="#444444" d="M22.012 10.042h9.988v2h-9.988v-2z"></path>
<path fill="#444444" d="M22.012 16h9.988v2h-9.988v-2z"></path>
</svg>
