<?xml version="1.0" encoding="utf-8"?>
<!-- Generated by IcoMoon.io -->
<!DOCTYPE svg PUBLIC "-//W3C//DTD SVG 1.1//EN" "http://www.w3.org/Graphics/SVG/1.1/DTD/svg11.dtd">
<svg version="1.1" xmlns="http://www.w3.org/2000/svg" xmlns:xlink="http://www.w3.org/1999/xlink" width="32" height="32" viewBox="0 0 32 32">
<path fill="#444444" d="M30 28.622l-9.050-9.048c1.548-1.86 2.486-4.25 2.486-6.854 0-5.912-4.808-10.72-10.718-10.72s-10.718 4.808-10.718 10.718c0 5.91 4.808 10.716 10.718 10.716 2.606 0 4.996-0.938 6.854-2.486l9.050 9.052 1.378-1.378zM12.718 21.486c-4.836 0-8.768-3.934-8.768-8.768 0-4.836 3.932-8.77 8.768-8.77 4.834 0 8.768 3.934 8.768 8.77 0 4.834-3.934 8.768-8.768 8.768z"></path>
</svg>
