<?xml version="1.0" encoding="utf-8"?>
<!-- Generated by IcoMoon.io -->
<!DOCTYPE svg PUBLIC "-//W3C//DTD SVG 1.1//EN" "http://www.w3.org/Graphics/SVG/1.1/DTD/svg11.dtd">
<svg version="1.1" xmlns="http://www.w3.org/2000/svg" xmlns:xlink="http://www.w3.org/1999/xlink" width="32" height="32" viewBox="0 0 32 32">
<path fill="#444444" d="M18 19.928c0-1.066-0.894-1.928-2-1.928-1.104 0-2 0.862-2 1.928 0 0.67 0.372 1.23 0.904 1.572v2.444c0 0.586 0.5 1.056 1.124 1.056 0.62 0 1.12-0.47 1.12-1.056v-2.476c0.502-0.35 0.852-0.894 0.852-1.54zM28.536 12.004h-4.536v-2.42c0-3.72-2.984-7.568-8.054-7.568-5.162 0-7.946 3.9-7.946 7.568v2.42h-4.534c-0.8 0-1.45 0.648-1.45 1.444v17.11c0 0.798 0.65 1.442 1.45 1.442h25.070c0.798 0 1.45-0.644 1.45-1.442v-17.11c-0.002-0.796-0.652-1.444-1.45-1.444zM10 9.584c0-2.698 2.084-5.568 6.022-5.568 3.742 0 5.978 2.832 5.978 5.568v2.42h-12v-2.42zM27.912 29.94h-23.824v-15.874h23.824v15.874z"></path>
</svg>
