<?xml version="1.0" encoding="iso-8859-1"?>
<!-- Generator: Adobe Illustrator 16.0.4, SVG Export Plug-In . SVG Version: 6.00 Build 0)  -->
<!DOCTYPE svg PUBLIC "-//W3C//DTD SVG 1.1//EN" "http://www.w3.org/Graphics/SVG/1.1/DTD/svg11.dtd">
<svg version="1.1" id="&#x56FE;&#x5C42;_1" xmlns="http://www.w3.org/2000/svg" xmlns:xlink="http://www.w3.org/1999/xlink" x="0px"
	 y="0px" width="14px" height="14px" viewBox="0 0 14 14" style="enable-background:new 0 0 14 14;" xml:space="preserve">
<g>
	<path d="M8.775,14.094H5.224v-2.055l-0.642-0.214l-1.411,1.411l-2.409-2.408l1.411-1.412L1.959,8.775h-2.053V5.224h2.053
		l0.214-0.642L0.762,3.171l2.409-2.409l1.411,1.412l0.642-0.214v-2.053h3.551v2.053l0.641,0.213l1.412-1.411l2.408,2.409
		l-1.411,1.411l0.214,0.642h2.055v3.551h-2.056l-0.213,0.641l1.411,1.412l-2.408,2.408l-1.412-1.411l-0.641,0.213V14.094z
		 M6.224,13.094h1.551v-1.776l1.91-0.635l1.143,1.14l0.994-0.994l-1.14-1.143l0.635-1.91h1.776V6.224h-1.777l-0.634-1.913
		l1.14-1.141l-0.994-0.995L9.686,3.317L7.775,2.68V0.906H6.224V2.68L4.312,3.317L3.171,2.176L2.176,3.171l1.141,1.141L2.68,6.224
		H0.906v1.551H2.68l0.637,1.91l-1.142,1.143l0.995,0.994l1.141-1.14l1.913,0.634V13.094z"/>
	<path d="M7,8.775C6.021,8.775,5.224,7.979,5.224,7c0-0.979,0.797-1.776,1.776-1.776c0.979,0,1.775,0.797,1.775,1.776
		C8.775,7.979,7.979,8.775,7,8.775z M7,6.224C6.572,6.224,6.224,6.572,6.224,7S6.572,7.775,7,7.775S7.775,7.428,7.775,7
		S7.428,6.224,7,6.224z"/>
</g>
</svg>
