<?xml version="1.0" encoding="utf-8"?>
<!-- Generated by IcoMoon.io -->
<!DOCTYPE svg PUBLIC "-//W3C//DTD SVG 1.1//EN" "http://www.w3.org/Graphics/SVG/1.1/DTD/svg11.dtd">
<svg version="1.1" xmlns="http://www.w3.org/2000/svg" xmlns:xlink="http://www.w3.org/1999/xlink" width="32" height="32" viewBox="0 0 32 32">
<path fill="#444444" d="M16 0c-8.836 0-16 7.162-16 16 0 8.834 7.164 16 16 16s16-7.166 16-16c0-8.838-7.164-16-16-16zM15 5h2v11h-2v-11zM16 26.484c-6.066 0-11-4.936-11-11 0-4.206 2.34-7.98 6.108-9.854l0.89 1.79c-3.082 1.534-4.998 4.622-4.998 8.064 0 4.964 4.038 9 9 9s9-4.038 9-9c0-3.448-1.92-6.54-5.012-8.070l0.886-1.792c3.778 1.868 6.126 5.648 6.126 9.862 0 6.064-4.936 11-11 11z"></path>
</svg>
