<?xml version="1.0" encoding="utf-8"?>
<!-- Generator: Adobe Illustrator 19.0.0, SVG Export Plug-In . SVG Version: 6.00 Build 0)  -->
<svg version="1.1" id="图层_1" xmlns="http://www.w3.org/2000/svg" xmlns:xlink="http://www.w3.org/1999/xlink" x="0px" y="0px"
	 viewBox="0 0 32 32" style="enable-background:new 0 0 32 32;" xml:space="preserve">
<style type="text/css">
	.st0{fill:#272536;}
</style>
<path class="st0" d="M16,0C7.2,0,0,7.2,0,16s7.2,16,16,16s16-7.2,16-16S24.9,0,16,0z M8.4,8.7l0.1-0.1c0.3-0.3,0.7-0.3,1,0l2.8,2.8
	c0.3,0.3,0.3,0.7,0,1l-0.1,0.1c-0.3,0.3-0.7,0.3-1,0L8.4,9.7C8.2,9.4,8.2,9,8.4,8.7z M5.6,16.2V16c0-0.4,0.3-0.7,0.7-0.7h4
	c0.4,0,0.7,0.3,0.7,0.7v0.2c0,0.4-0.3,0.7-0.7,0.7h-4C5.9,16.8,5.6,16.5,5.6,16.2z M12.7,20.6l-2.8,2.8c-0.3,0.3-0.7,0.3-1,0
	l-0.1-0.1c-0.3-0.3-0.3-0.7,0-1l2.8-2.8c0.3-0.3,0.7-0.3,1,0l0.1,0.1C12.9,19.9,12.9,20.3,12.7,20.6z M15,10.1v-4
	c0-0.4,0.3-0.7,0.7-0.7h0.2c0.4,0,0.7,0.3,0.7,0.7v4c0,0.4-0.3,0.7-0.7,0.7h-0.2C15.3,10.8,15,10.5,15,10.1z M17,25.6
	c0,0.4-0.3,0.7-0.7,0.7h-0.2c-0.4,0-0.7-0.3-0.7-0.7v-4c0-0.4,0.3-0.7,0.7-0.7h0.2c0.4,0,0.7,0.3,0.7,0.7V25.6z M19.4,11.1l2.8-2.8
	c0.3-0.3,0.7-0.3,1,0l0.1,0.1c0.3,0.3,0.3,0.7,0,1l-2.8,2.8c-0.3,0.3-0.7,0.3-1,0l-0.1-0.1C19.1,11.8,19.1,11.4,19.4,11.1z M23.6,23
	l-0.1,0.2c-0.3,0.3-0.7,0.3-1,0l-2.8-2.8c-0.3-0.3-0.3-0.7,0-1l0.1-0.1c0.3-0.3,0.7-0.3,1,0l2.8,2.8C23.9,22.3,23.9,22.7,23.6,23z
	 M26.4,15.8c0,0.4-0.3,0.7-0.7,0.7h-4c-0.4,0-0.7-0.3-0.7-0.7v-0.2c0-0.4,0.3-0.7,0.7-0.7h4c0.4,0,0.7,0.3,0.7,0.7V15.8z"/>
</svg>
