<?xml version="1.0" encoding="utf-8"?>
<!-- Generated by IcoMoon.io -->
<!DOCTYPE svg PUBLIC "-//W3C//DTD SVG 1.1//EN" "http://www.w3.org/Graphics/SVG/1.1/DTD/svg11.dtd">
<svg version="1.1" xmlns="http://www.w3.org/2000/svg" xmlns:xlink="http://www.w3.org/1999/xlink" width="32" height="32" viewBox="0 0 32 32">
<path fill="#444444" d="M14.5 25.5h3v0.5h-3v-0.5z"></path>
<path fill="#444444" d="M16 6c-3.86 0-7 3.14-7 7 0 2.028 0.886 3.904 2.404 5.238 0.972 0.916 1.72 1.788 2.236 2.764h4.726c0.51-0.968 1.248-1.834 2.208-2.738 1.532-1.336 2.426-3.226 2.426-5.264 0-3.86-3.14-7-7-7zM16 10c-1.654 0-3 1.346-3 3h-2c0-2.756 2.244-5 5-5v2z"></path>
<path fill="#444444" d="M16 0c-8.836 0-16 7.162-16 16 0 8.834 7.164 16 16 16s16-7.166 16-16c0-8.838-7.164-16-16-16zM22.574 19.138c-0.024 0.022-0.042 0.040-0.064 0.060-0.26 0.27-0.534 0.53-0.83 0.77-1.682 1.656-2.18 2.86-2.18 4.914v1.688c0 0.828-0.504 1.43-1.2 1.43h-4.6c-0.696 0-1.2-0.602-1.2-1.43v-1.762c-0.012-1.994-0.512-3.19-2.146-4.806-0.32-0.258-0.614-0.54-0.89-0.832-0.012-0.012-0.022-0.022-0.034-0.032l0.002-0.004c-1.552-1.656-2.432-3.824-2.432-6.134 0-4.962 4.038-9 9-9s9 4.038 9 9c0 2.308-0.878 4.478-2.432 6.134l0.006 0.004z"></path>
<path fill="#444444" d="M14.41 23.5h3.184c0.022-0.172 0.052-0.336 0.084-0.5h-3.352c0.030 0.164 0.060 0.328 0.084 0.5z"></path>
</svg>
