<?xml version="1.0" encoding="utf-8"?>
<!-- Generated by IcoMoon.io -->
<!DOCTYPE svg PUBLIC "-//W3C//DTD SVG 1.1//EN" "http://www.w3.org/Graphics/SVG/1.1/DTD/svg11.dtd">
<svg version="1.1" xmlns="http://www.w3.org/2000/svg" xmlns:xlink="http://www.w3.org/1999/xlink" width="32" height="32" viewBox="0 0 32 32">
<path fill="#444444" d="M28.001 22c-1.173 0-2.22 0.517-2.952 1.323l-7.994-4.614v-8.869c1.679-0.465 2.931-1.986 2.944-3.804 0.010-1.069-0.396-2.077-1.146-2.839-0.749-0.762-1.749-1.187-2.853-1.197-2.186 0-3.981 1.778-4 3.965-0.016 1.891 1.293 3.482 3.055 3.913v8.799l-8.086 4.667c-0.733-0.819-1.786-1.344-2.969-1.344-2.206 0-4 1.794-4 4s1.794 4 4 4 4-1.794 4-4c0-0.304-0.041-0.597-0.105-0.881l8.132-4.694 8.086 4.668c-0.068 0.292-0.113 0.594-0.113 0.907 0 2.206 1.795 4 4.001 4s3.999-1.794 3.999-4-1.794-4-3.999-4zM4 28c-1.103 0-2-0.897-2-2s0.897-2 2-2 2 0.897 2 2-0.897 2-2 2zM14 5.982c0.010-1.093 0.907-1.982 2.017-1.982 0.535 0.005 1.036 0.217 1.41 0.598s0.577 0.885 0.572 1.421c-0.009 1.092-0.905 1.981-1.999 1.981h-0.017c-1.103-0.010-1.992-0.915-1.983-2.018zM28.001 28c-1.104 0-2.001-0.897-2.001-2s0.897-2 2.001-2c1.103 0 1.999 0.897 1.999 2s-0.896 2-1.999 2z"></path>
</svg>
