<?xml version="1.0" encoding="utf-8"?>
<!-- Generator: Adobe Illustrator 21.0.0, SVG Export Plug-In . SVG Version: 6.00 Build 0)  -->
<svg version="1.1" id="图层_1" xmlns="http://www.w3.org/2000/svg" xmlns:xlink="http://www.w3.org/1999/xlink" x="0px" y="0px"
	 viewBox="0 0 32 32" style="enable-background:new 0 0 32 32;" xml:space="preserve">
<path d="M11.8,15.7v12.7h15.1V15.7H11.8z M21.4,17.7V20h-4.3v-2.3H21.4z M24.9,26.4H13.8v-8.7h1.3V22h8.3v-4.3h1.5V26.4z"/>
<path d="M23,8.8c-1.5-3.1-4.5-5.2-8.1-5.2c-4.7,0-8.6,3.8-9,8.6c-3.5,1-6,4.2-6,7.9c0,4.4,3.5,8,8,8.2h2.5h0.2v-2h-0.2H8.1
	C4.7,26.1,2,23.4,2,20.1c0-2.8,1.8-5.2,4.6-6C7.4,13.9,8,13.2,8,12.4c0.3-3.8,3.3-6.7,7-6.7c2.7,0,5.1,1.5,6.3,4
	c0.3,0.7,1,1.1,1.7,1.1c4,0.2,7,3.6,7,7.8c0,2.2-0.8,4.2-2.2,5.7v2.6c0.2-0.2,0.5-0.3,0.7-0.5c2.1-1.8,3.5-4.6,3.5-7.8
	C32,13.4,28,9.1,23,8.8z"/>
</svg>
