<?xml version="1.0" encoding="utf-8"?>
<!-- Generated by IcoMoon.io -->
<!DOCTYPE svg PUBLIC "-//W3C//DTD SVG 1.1//EN" "http://www.w3.org/Graphics/SVG/1.1/DTD/svg11.dtd">
<svg version="1.1" xmlns="http://www.w3.org/2000/svg" xmlns:xlink="http://www.w3.org/1999/xlink" width="32" height="32" viewBox="0 0 32 32">
<path fill="#444444" d="M30.364 4.968l-3.216-3.326c-0.18-0.186-0.51-0.192-0.694-0.008l-13.056 12.816-3.842 7.342c-0.098 0.188-0.060 0.422 0.094 0.57 0.088 0.088 0.208 0.136 0.338 0.136 0.082 0 0.164-0.022 0.238-0.062l7.22-4 0.088-0.066 12.822-12.722c0.188-0.186 0.192-0.482 0.008-0.68zM16.886 17.638l-3.216 1.784c-0.738-0.248-1.024-0.84-1.134-1.246l1.626-3.118-0.006 0.016 2.658 2.636 0.072-0.072zM28.872 30.952h-25.744c-1.146 0-2.078-0.93-2.078-2.072v-25.76c0-1.14 0.932-2.070 2.078-2.070h12.874v1.868h-12.874c-0.116 0-0.21 0.090-0.21 0.202v25.758c0 0.114 0.094 0.202 0.21 0.202h25.742c0.118 0 0.208-0.088 0.208-0.202v-12.782h1.872v12.784c0.002 1.142-0.932 2.072-2.078 2.072z"></path>
</svg>
