<?xml version="1.0" encoding="utf-8"?>
<!-- Generated by IcoMoon.io -->
<!DOCTYPE svg PUBLIC "-//W3C//DTD SVG 1.1//EN" "http://www.w3.org/Graphics/SVG/1.1/DTD/svg11.dtd">
<svg version="1.1" xmlns="http://www.w3.org/2000/svg" xmlns:xlink="http://www.w3.org/1999/xlink" width="32" height="32" viewBox="0 0 32 32">
<path fill="#444444" d="M7.5 17h17v2h-17v-2zM29.891 2h-27.782c-1.163 0-2.108 0.919-2.108 2.048v17.904c0 1.13 0.946 2.048 2.108 2.048h8.892v4h-3.5v2h17v-2h-3.5v-4h8.891c1.163 0 2.109-0.919 2.109-2.048v-17.904c0-1.129-0.947-2.048-2.109-2.048zM19 28h-6v-4h6v4zM29.996 21.952c0 0.056-0.047 0.102-0.105 0.102h-27.782c-0.058 0-0.104-0.045-0.104-0.102v-17.904c0-0.055 0.047-0.102 0.104-0.102h27.782c0.058 0 0.105 0.046 0.105 0.102v17.904z"></path>
</svg>
