<?xml version="1.0" encoding="utf-8"?>
<!-- Generated by IcoMoon.io -->
<!DOCTYPE svg PUBLIC "-//W3C//DTD SVG 1.1//EN" "http://www.w3.org/Graphics/SVG/1.1/DTD/svg11.dtd">
<svg version="1.1" xmlns="http://www.w3.org/2000/svg" xmlns:xlink="http://www.w3.org/1999/xlink" width="32" height="32" viewBox="0 0 32 32">
<path fill="#444444" d="M16.001 32c-8.824 0-16.001-7.178-16.001-16s7.177-16 16.001-16c8.822 0 15.999 7.178 15.999 16s-7.177 16-15.999 16zM16.001 2c-7.724 0-14.006 6.28-14.006 14s6.283 14 14.007 14c7.721 0 14.004-6.28 14.004-14s-6.283-14-14.005-14zM14 19.557v0 0-1.557h-4l1.218 1.218-3.218 3.227 1.57 1.555 3.21-3.22 1.22 1.22zM24 9.577l-1.568-1.577-3.219 3.213-1.213-1.213v4h4l-1.215-1.215zM14 12.587l-3.295-3.292 1.295-1.295h-4v4l1.294-1.294 3.298 3.294zM22.786 21.214l-3.215-3.214-1.571 1.573 3.214 3.213-1.214 1.214h4v-4z"></path>
</svg>
