<?xml version="1.0" encoding="utf-8"?>
<!-- Generated by IcoMoon.io -->
<!DOCTYPE svg PUBLIC "-//W3C//DTD SVG 1.1//EN" "http://www.w3.org/Graphics/SVG/1.1/DTD/svg11.dtd">
<svg version="1.1" xmlns="http://www.w3.org/2000/svg" xmlns:xlink="http://www.w3.org/1999/xlink" width="32" height="32" viewBox="0 0 32 32">
<path fill="#444444" d="M30.001 30h-28.001c-1.179 0-2-1.242-2-2.357v-18.951c0-0.509 0.194-1.692 2-1.692h4.93l1.185-3.449c0.316-0.913 1.255-1.551 2.283-1.551h10.665c0.974 0 1.948 0.653 2.318 1.552l1.436 3.448h5.184c1.804 0 2 1.183 2 1.692v18.951c0 1.115-0.822 2.357-2 2.357zM2.126 28h27.748c0.057-0.078 0.127-0.229 0.127-0.357v-18.643h-6.518l-1.949-4.683c-0.060-0.147-0.315-0.317-0.471-0.317h-10.665c-0.177 0-0.364 0.122-0.392 0.202l-1.65 4.798h-6.356v18.643c0 0.128 0.069 0.279 0.126 0.357zM16 26c-4.136 0-7.5-3.364-7.5-7.5s3.364-7.5 7.5-7.5c4.136 0 7.5 3.364 7.5 7.5s-3.364 7.5-7.5 7.5zM16 13c-3.033 0-5.5 2.467-5.5 5.5 0 3.032 2.467 5.5 5.5 5.5 3.032 0 5.5-2.468 5.5-5.5s-2.468-5.5-5.5-5.5z"></path>
</svg>
