<?xml version="1.0" encoding="utf-8"?>
<!-- Generated by IcoMoon.io -->
<!DOCTYPE svg PUBLIC "-//W3C//DTD SVG 1.1//EN" "http://www.w3.org/Graphics/SVG/1.1/DTD/svg11.dtd">
<svg version="1.1" xmlns="http://www.w3.org/2000/svg" xmlns:xlink="http://www.w3.org/1999/xlink" width="32" height="32" viewBox="0 0 32 32">
<path fill="#444444" d="M20 7v2h-10.278c-0.346-0.595-0.984-1-1.722-1-1.104 0-2 0.896-2 2s0.896 2 2 2c0.738 0 1.376-0.405 1.722-1h10.278v2h2v4h-2.843l-2.99-2.989v-0.011h-2.445c-0.346-0.595-0.984-1-1.722-1-1.104 0-2 0.896-2 2s0.896 2 2 2c0.738 0 1.376-0.405 1.722-1h1.268l2.999 3 0.011-0.011v0.011h6v-6h2v-6h-6zM30.571 2h-29.142c-0.788 0-1.429 0.629-1.429 1.4v19.2c0 0.772 0.641 1.4 1.429 1.4h14.571v6h14v-6h0.571c0.788 0 1.429-0.628 1.429-1.4v-19.2c0-0.771-0.641-1.4-1.429-1.4zM18 28v-4h2v4h-2zM22 28v-4h2v4h-2zM28 28h-2v-4h2v4zM30 22h-28v-18h28v18z"></path>
</svg>
