<?xml version="1.0" encoding="utf-8"?>
<!-- Generated by IcoMoon.io -->
<!DOCTYPE svg PUBLIC "-//W3C//DTD SVG 1.1//EN" "http://www.w3.org/Graphics/SVG/1.1/DTD/svg11.dtd">
<svg version="1.1" xmlns="http://www.w3.org/2000/svg" xmlns:xlink="http://www.w3.org/1999/xlink" width="32" height="32" viewBox="0 0 32 32">
<path fill="#444444" d="M0 17.088l0.273-0.49zM32 17.561l-0.018-0.089c-0.016-0.198-0.047-0.378-0.102-0.528l-0.005-0.026-0.359-0.702-6.47-11.597c-0.226-0.422-0.514-0.619-1.004-0.619h-16.074c-0.488 0-0.779 0.197-1.004 0.619l-6.692 11.981-0.042 0.117c-0.086 0.149-0.148 0.324-0.185 0.527l-0.045 0.131 0.024 0.009c-0.013 0.115-0.024 0.234-0.024 0.366l0.010 8.751c-0.010 1.030 0.49 1.499 1.49 1.499h29c1.016 0 1.5-0.5 1.5-1.469v-8.781c0-0.067-0.008-0.124-0.012-0.187l0.012-0.002zM8.471 5.986h15.068l5.586 10.016h-26.22l5.566-10.016zM29.997 26h-27.997v-8h27.997v8zM12 21h8v2h-8v-2z"></path>
</svg>
