<?xml version="1.0" encoding="utf-8"?>
<!-- Generated by IcoMoon.io -->
<!DOCTYPE svg PUBLIC "-//W3C//DTD SVG 1.1//EN" "http://www.w3.org/Graphics/SVG/1.1/DTD/svg11.dtd">
<svg version="1.1" xmlns="http://www.w3.org/2000/svg" xmlns:xlink="http://www.w3.org/1999/xlink" width="32" height="32" viewBox="0 0 32 32">
<path fill="#444444" d="M14.5 12.008l-3.5-3.008v2h-6v2h6v2h-6v2h6v2l3.5-3-1.887-2.039zM27 17v-1.994h-6v-2.006l-3.5 3 1.961 1.985-1.961 2.015 3.5 3v-1.998h6v-1.994h-6v-2.008zM29.893 27h-27.787c-1.162 0-2.107-0.93-2.107-2.072v-17.855c0-1.143 0.945-2.072 2.107-2.072h27.787c1.162 0 2.107 0.929 2.107 2.072v17.855c0 1.143-0.945 2.072-2.107 2.072zM2.107 7c-0.066 0-0.107 0.042-0.107 0.072v17.855c0 0.030 0.041 0.073 0.107 0.073h27.787c0.061 0 0.107-0.038 0.107-0.073v-17.855c0-0.030-0.041-0.072-0.107-0.072h-27.787z"></path>
</svg>
