<?xml version="1.0" encoding="utf-8"?>
<!-- Generated by IcoMoon.io -->
<!DOCTYPE svg PUBLIC "-//W3C//DTD SVG 1.1//EN" "http://www.w3.org/Graphics/SVG/1.1/DTD/svg11.dtd">
<svg version="1.1" xmlns="http://www.w3.org/2000/svg" xmlns:xlink="http://www.w3.org/1999/xlink" width="32" height="32" viewBox="0 0 32 32">
<path fill="#444444" d="M16 32c-8.822 0-16-7.178-16-16s7.178-16 16-16c8.822 0 16 7.178 16 16s-7.178 16-16 16zM16 2c-7.72 0-14 6.28-14 14 0 7.718 6.28 14 14 14s14-6.282 14-14c0.002-7.72-6.28-14-14-14zM17.688 15.202c0 0 0.782-1.064 1.512-1.176 0.726-0.114 1.012-0.224 1.626 0 0.618 0.222 2.072 1.912 2.072 1.912 1.686 0.498 2.302 0.104 2.412 0.778 0.114 0.672 0.618 2.128-0.84 3.922s-1.122 1.362-2.636 2.86c-1.644 1.626-2.856 2.13-2.856 2.13l-3.084 1.514c-1.63 0.558-0.79 0.896 0-1.066 1.35-3.356 0.84-4.204 0.84-4.204l-3.25-2.634 0.392-1.794 0.336-1.504 1.454-0.4 2.022-0.338zM4.848 16.102c-0.85-5.048 4.714-12.278 13.288-11.324 8.578 0.952 0.894 6.508 1.852 4.428 2.048-4.45-5.44-2.292-5.44-2.292 3.026 2.41 2.522 2.69 2.522 2.69l-3.646 0.84-1.568 1.626-1.734 0.668c-1.122-1.57-1.124 0.734-1.124 0.734s-0.778-2.7-2.13-1.402c-3.932 3.778 0.28 6.222 0.896 5.672 0 0-1.906 4.362-2.916-1.64z"></path>
</svg>
