<?xml version="1.0" encoding="utf-8"?>
<!-- Generated by IcoMoon.io -->
<!DOCTYPE svg PUBLIC "-//W3C//DTD SVG 1.1//EN" "http://www.w3.org/Graphics/SVG/1.1/DTD/svg11.dtd">
<svg version="1.1" xmlns="http://www.w3.org/2000/svg" xmlns:xlink="http://www.w3.org/1999/xlink" width="32" height="32" viewBox="0 0 32 32">
<path fill="#444444" d="M30 5h-28c-1.104 0-2 0.858-2 1.91v18.182c0 1.050 0.896 1.908 2 1.908h28c1.104 0 2-0.858 2-1.908v-18.182c0-1.052-0.896-1.91-2-1.91zM30 6.91v4.1h-28v-4.1h28zM30 25.002h-28v-7.998h28l0.038 7.998c0 0-0.012 0-0.038 0zM6 20h8v2h-8v-2zM18 20h8v2h-8v-2z"></path>
</svg>
