<?xml version="1.0" encoding="utf-8"?>
<!-- Generated by IcoMoon.io -->
<!DOCTYPE svg PUBLIC "-//W3C//DTD SVG 1.1//EN" "http://www.w3.org/Graphics/SVG/1.1/DTD/svg11.dtd">
<svg version="1.1" xmlns="http://www.w3.org/2000/svg" xmlns:xlink="http://www.w3.org/1999/xlink" width="32" height="32" viewBox="0 0 32 32">
<path fill="#444444" d="M16 32c-8.822 0-16-7.178-16-16s7.178-16 16-16 16 7.178 16 16-7.178 16-16 16zM16 2c-7.718 0-14 6.28-14 14 0 7.718 6.282 14 14 14s14-6.282 14-14c0-7.72-6.282-14-14-14zM18 16c0 1.106-0.894 2-2 2-1.104 0-2-0.894-2-2s0.896-2 2-2c1.106 0 2 0.894 2 2zM10 16c0 1.106-0.894 2-2 2s-2-0.894-2-2c0-1.106 0.896-2 2-2 1.106 0 2 0.894 2 2zM26 16c0 1.106-0.894 2-2 2-1.104 0-2-0.894-2-2s0.896-2 2-2c1.106 0 2 0.894 2 2z"></path>
</svg>
