<?xml version="1.0" encoding="utf-8"?>
<!-- Generated by IcoMoon.io -->
<!DOCTYPE svg PUBLIC "-//W3C//DTD SVG 1.1//EN" "http://www.w3.org/Graphics/SVG/1.1/DTD/svg11.dtd">
<svg version="1.1" xmlns="http://www.w3.org/2000/svg" xmlns:xlink="http://www.w3.org/1999/xlink" width="32" height="32" viewBox="0 0 32 32">
<path fill="#444444" d="M29.002 24.142l-0.002-7.258c0-1.038-0.904-1.884-2.016-1.884h-9.984v-7.142c1.72-0.446 3-1.998 3-3.858 0-2.206-1.792-4-3.998-4-2.208 0-4.002 1.794-4.002 4 0 1.858 1.28 3.41 3 3.858v7.142h-9.984c-1.112 0-2.016 0.846-2.016 1.884l0.002 7.258c-1.722 0.448-3.002 2-3.002 3.858 0 2.206 1.794 4 4.002 4 2.204 0 3.998-1.794 3.998-4 0-1.858-1.278-3.41-2.996-3.858l0.012-7.196h9.984v7.196c-1.72 0.448-3 2-3 3.858 0 2.206 1.794 4 4 4 2.204 0 4-1.794 4-4 0-1.858-1.282-3.41-3.002-3.858v-7.194h10l0.002 7.196c-1.718 0.446-3 1.998-3 3.856 0 2.206 1.794 4 4.002 4 2.206 0 3.998-1.794 3.998-4 0-1.858-1.28-3.41-2.998-3.858zM6 28c0 1.104-0.896 2-1.998 2-1.104 0-2.002-0.896-2.002-2s0.898-2 2.002-2c1.102 0 1.998 0.896 1.998 2zM18.002 28c0 1.104-0.898 2-2 2-1.104 0-2-0.896-2-2s0.896-2 2-2c1.102 0 2 0.896 2 2zM28.002 30c-1.104 0-2.002-0.896-2.002-2s0.898-2 2.002-2c1.102 0 1.998 0.896 1.998 2s-0.896 2-1.998 2z"></path>
</svg>
