<?xml version="1.0" encoding="utf-8"?>
<!-- Generated by IcoMoon.io -->
<!DOCTYPE svg PUBLIC "-//W3C//DTD SVG 1.1//EN" "http://www.w3.org/Graphics/SVG/1.1/DTD/svg11.dtd">
<svg version="1.1" xmlns="http://www.w3.org/2000/svg" xmlns:xlink="http://www.w3.org/1999/xlink" width="32" height="32" viewBox="0 0 32 32">
<path fill="#444444" d="M24 4.968c-4.267 0-7.482 1.831-7.482 4.51 0 2.462 2.721 4.249 6.475 4.506v8.016h-2.5v2h2.5v1.969h-2.5v2h2.5v2.031h2.031v-16.017c3.745-0.26 6.492-2.045 6.492-4.504 0-2.68-3.249-4.511-7.516-4.511zM24 12c-3.486 0-5.383-1-5.383-2.41 0-1.309 1.875-2.497 5.391-2.528 4.359 0 5.367 1.572 5.367 2.383 0 1.337-1.716 2.555-5.375 2.555zM16.040 11.745c-1.346-0.338-2.368-0.933-3.118-1.656-0.816-0.787-1.422-1.62-1.691-2.4-0.209-0.605-0.54-1.73 0.019-2.361 0.25-0.282 0.55-0.359 0.987-0.359 0.961 0 2.278 0.862 3.493 2.073 0.242 0.241 0.242 0.241 0.47 0.582 0.362-0.839 0.892-1.364 1.365-1.792-0.098-0.106-0.192-0.212-0.299-0.316-1.594-1.584-3.53-2.53-5.18-2.53-0.953 0-1.771 0.313-2.366 0.905-0.885 0.878-1.137 2.258-0.694 3.784 0.257 0.884 0.747 1.788 1.394 2.637l-4.452 4.425-1.748-1.747-1.414 1.414 1.744 1.744-1.397 1.389-1.739-1.74-1.414 1.414 1.735 1.734-1.735 1.725 1.594 1.584 10.372-10.312c1.474 1.196 3.188 1.735 4.702 1.8 0.358 0.015 0.75 0.033 1.257-0.086-0.632-0.28-1.299-0.822-1.885-1.911z"></path>
</svg>
