<?xml version="1.0" encoding="utf-8"?>
<!-- Generated by IcoMoon.io -->
<!DOCTYPE svg PUBLIC "-//W3C//DTD SVG 1.1//EN" "http://www.w3.org/Graphics/SVG/1.1/DTD/svg11.dtd">
<svg version="1.1" xmlns="http://www.w3.org/2000/svg" xmlns:xlink="http://www.w3.org/1999/xlink" width="32" height="32" viewBox="0 0 32 32">
<path fill="#444444" d="M30.006 28h-28.010c-1.1 0-1.996-0.922-1.996-2.056v-19.886c0-1.136 0.896-2.058 1.996-2.058h28.010c1.1 0 1.994 0.922 1.994 2.058v19.886c0 1.134-0.894 2.056-1.994 2.056zM1.996 6l0.004 19.944 27.978 0.056 0.022-19.942-28.004-0.058zM7.266 21l-1.266-1.652 4.504-3.364-4.5-3.322 1.258-1.662 6.738 4.976zM18 15h8v2h-8v-2z"></path>
</svg>
